<svg id="SvgjsSvg1001" width="288" height="288"
    version="1.1"
    >
    <g id="SvgjsG1008" transform="matrix(1,0,0,1,0,0)">
        <svg xmlns="http://www.w3.org/2000/svg" xmlns:xlink="http://www.w3.org/1999/xlink"
            enable-background="new 0 0 499.999 500"
            viewBox="0 0 499.999 500" width="288"
            height="288">
            <path fill="#ccede7" d="M26.191,396.319c-22.931-47.498-16.07-57.124,9.853-131.377
					c25.924-74.251-35.046-179.708,77.888-218.18c128.093-43.637,149.214,68.144,186.276,98.064
					c51.142,41.29,120.231,22.991,164.221,78.357c43.986,55.365,7.93,140.045,2.814,147.799
					c-38.633,58.573-114.016,83.989-114.016,83.989l-217.243-4.224C135.984,450.748,39.328,423.534,26.191,396.319z"
                class="svgShape colorccede7-0 selectable"></path>
            <path fill="#ffffff" d="M339.472,440.099c-0.01,0-0.02,0-0.029,0l-5.677-0.11c-0.828-0.017-1.486-0.701-1.471-1.529
						c0.017-0.818,0.685-1.471,1.499-1.471c0.011,0,0.021,0,0.03,0l5.265,0.103c0.721-0.41,2.51-1.436,5.162-3.005
						c0.712-0.421,1.633-0.187,2.055,0.527c0.422,0.713,0.186,1.633-0.527,2.055c-3.295,1.95-5.271,3.068-5.537,3.219l0,0
						C340.011,440.024,339.747,440.099,339.472,440.099z M321.737,439.754c-0.011,0-0.021,0-0.03,0l-12.06-0.234
						c-0.828-0.017-1.486-0.701-1.471-1.529c0.017-0.818,0.685-1.471,1.499-1.471c0.011,0,0.021,0,0.03,0l12.06,0.234
						c0.828,0.017,1.486,0.701,1.471,1.529C323.219,439.102,322.551,439.754,321.737,439.754z M297.618,439.286
						c-0.011,0-0.021,0-0.03,0l-12.06-0.234c-0.828-0.017-1.486-0.701-1.471-1.529c0.017-0.818,0.685-1.471,1.499-1.471
						c0.011,0,0.021,0,0.03,0l12.06,0.234c0.828,0.017,1.486,0.701,1.471,1.529C299.1,438.633,298.432,439.286,297.618,439.286z
						 M273.498,438.816c-0.01,0-0.02,0-0.029,0l-12.06-0.234c-0.828-0.017-1.486-0.701-1.471-1.529
						c0.017-0.818,0.685-1.471,1.499-1.471c0.011,0,0.021,0,0.03,0l12.06,0.234c0.828,0.017,1.486,0.701,1.471,1.529
						C274.981,438.164,274.313,438.816,273.498,438.816z M249.379,438.347c-0.01,0-0.02,0-0.03,0l-12.059-0.234
						c-0.828-0.017-1.486-0.701-1.47-1.529c0.016-0.828,0.665-1.484,1.529-1.471l12.059,0.234c0.828,0.017,1.486,0.701,1.47,1.529
						C250.863,437.695,250.194,438.347,249.379,438.347z M225.26,437.878c-0.01,0-0.02,0-0.03,0l-12.059-0.234
						c-0.828-0.017-1.486-0.701-1.47-1.529c0.016-0.818,0.684-1.471,1.499-1.471c0.01,0,0.02,0,0.03,0l12.059,0.234
						c0.828,0.017,1.486,0.701,1.47,1.529C226.744,437.226,226.075,437.878,225.26,437.878z M201.142,437.41c-0.01,0-0.019,0-0.03,0
						l-12.06-0.234c-0.828-0.017-1.486-0.701-1.47-1.529c0.016-0.818,0.684-1.471,1.499-1.471c0.01,0,0.02,0,0.03,0l12.059,0.234
						c0.828,0.017,1.486,0.701,1.47,1.529C202.625,436.757,201.957,437.41,201.142,437.41z M177.023,436.941c-0.01,0-0.02,0-0.03,0
						l-12.06-0.235c-0.828-0.017-1.487-0.701-1.47-1.529c0.016-0.828,0.653-1.478,1.529-1.471l12.06,0.235
						c0.828,0.017,1.487,0.701,1.47,1.529C178.506,436.289,177.838,436.941,177.023,436.941z M152.904,436.471
						c-0.01,0-0.02,0-0.03,0l-8.855-0.172c-0.127-0.003-0.254-0.021-0.377-0.057c0,0-1.124-0.316-3.133-0.913
						c-0.794-0.235-1.247-1.07-1.011-1.864c0.236-0.794,1.071-1.251,1.865-1.011c1.514,0.449,2.518,0.737,2.909,0.849l8.662,0.168
						c0.828,0.017,1.486,0.701,1.47,1.529C154.387,435.819,153.719,436.471,152.904,436.471z M129.374,431.8
						c-0.153,0-0.308-0.023-0.461-0.072c-3.851-1.244-7.719-2.54-11.499-3.853c-0.782-0.271-1.197-1.126-0.925-1.909
						c0.271-0.782,1.124-1.197,1.909-0.925c3.758,1.305,7.606,2.594,11.436,3.831c0.789,0.255,1.221,1.101,0.966,1.889
						C130.596,431.396,130.007,431.8,129.374,431.8z M355.347,430.612c-0.501,0-0.991-0.252-1.275-0.709
						c-0.436-0.704-0.221-1.629,0.483-2.065c3.37-2.091,6.796-4.259,10.184-6.445c0.693-0.45,1.625-0.25,2.073,0.446
						c0.45,0.696,0.25,1.624-0.446,2.073c-3.402,2.197-6.844,4.375-10.229,6.475C355.891,430.54,355.618,430.612,355.347,430.612z
						 M106.535,423.86c-0.175,0-0.353-0.03-0.526-0.096c-3.913-1.465-7.711-2.948-11.289-4.407
						c-0.767-0.313-1.135-1.188-0.823-1.955c0.313-0.768,1.188-1.137,1.956-0.822c3.551,1.448,7.322,2.92,11.209,4.376
						c0.775,0.29,1.169,1.154,0.878,1.931C107.714,423.489,107.143,423.86,106.535,423.86z M375.638,417.51
						c-0.482,0-0.957-0.232-1.246-0.664c-0.462-0.688-0.279-1.619,0.409-2.081c3.367-2.262,6.71-4.553,9.935-6.81
						c0.682-0.473,1.615-0.31,2.09,0.369c0.475,0.68,0.31,1.614-0.369,2.09c-3.241,2.267-6.6,4.568-9.983,6.841
						C376.217,417.428,375.926,417.51,375.638,417.51z M84.179,414.711c-0.206,0-0.416-0.042-0.616-0.133
						c-3.913-1.768-7.599-3.541-10.957-5.271c-0.736-0.379-1.026-1.284-0.646-2.021c0.38-0.735,1.284-1.024,2.021-0.645
						c3.313,1.707,6.952,3.457,10.817,5.203c0.755,0.341,1.091,1.229,0.75,1.984C85.296,414.383,84.75,414.711,84.179,414.711z
						 M395.418,403.667c-0.462,0-0.919-0.213-1.212-0.615c-0.489-0.669-0.343-1.607,0.326-2.096
						c3.285-2.399,6.529-4.824,9.643-7.208c0.659-0.503,1.599-0.379,2.103,0.279c0.503,0.658,0.378,1.6-0.279,2.104
						c-3.132,2.396-6.395,4.835-9.697,7.247C396.036,403.573,395.726,403.667,395.418,403.667z M62.764,403.547
						c-0.271,0-0.544-0.073-0.791-0.227c-3.903-2.427-7.263-4.841-9.987-7.174c-0.629-0.539-0.702-1.486-0.163-2.115
						c0.539-0.631,1.485-0.704,2.115-0.163c2.609,2.234,5.845,4.558,9.619,6.905c0.704,0.438,0.919,1.362,0.482,2.065
						C63.755,403.296,63.265,403.547,62.764,403.547z M414.582,388.985c-0.438,0-0.872-0.19-1.169-0.559
						c-0.52-0.645-0.419-1.589,0.227-2.109c3.183-2.566,6.297-5.151,9.254-7.683c0.632-0.539,1.577-0.465,2.115,0.164
						c0.539,0.63,0.465,1.576-0.164,2.115c-2.98,2.55-6.116,5.154-9.322,7.739C415.245,388.876,414.912,388.985,414.582,388.985z
						 M45.282,387.337c-0.558,0-1.093-0.311-1.352-0.848c-1.981-4.104-3.629-7.714-5.038-11.035
						c-0.324-0.763,0.033-1.643,0.795-1.967c0.761-0.322,1.643,0.033,1.966,0.795c1.39,3.277,3.018,6.844,4.977,10.902
						c0.36,0.746,0.047,1.643-0.698,2.003C45.723,387.29,45.5,387.337,45.282,387.337z M432.909,373.274
						c-0.405,0-0.81-0.164-1.105-0.486c-0.56-0.61-0.519-1.56,0.092-2.119c3.042-2.79,5.964-5.578,8.685-8.287
						c0.588-0.585,1.537-0.583,2.121,0.004c0.585,0.587,0.583,1.537-0.004,2.121c-2.75,2.739-5.702,5.556-8.774,8.373
						C433.634,373.143,433.271,373.274,432.909,373.274z M36.051,365.08c-0.638,0-1.229-0.409-1.431-1.05
						c-1.328-4.227-2.235-8.143-2.771-11.975c-0.115-0.82,0.457-1.579,1.277-1.693c0.815-0.115,1.578,0.456,1.693,1.277
						c0.514,3.666,1.384,7.425,2.663,11.49c0.248,0.791-0.191,1.633-0.981,1.881C36.352,365.057,36.2,365.08,36.051,365.08z
						 M447.371,354.393c-0.189,0-0.383-0.036-0.569-0.113c-0.767-0.314-1.132-1.191-0.816-1.958
						c1.411-3.431,2.769-7.212,4.034-11.236c0.248-0.791,1.088-1.236,1.88-0.982c0.791,0.248,1.23,1.09,0.981,1.88
						c-1.29,4.107-2.677,7.97-4.122,11.48C448.52,354.043,447.96,354.393,447.371,354.393z M32.871,341.321
						c-0.03,0-0.061-0.001-0.091-0.003c-0.827-0.049-1.458-0.76-1.408-1.587c0.226-3.782,0.785-7.755,1.709-12.144
						c0.17-0.811,0.963-1.334,1.777-1.159c0.811,0.171,1.33,0.966,1.159,1.776c-0.893,4.243-1.433,8.072-1.649,11.705
						C34.319,340.707,33.659,341.321,32.871,341.321z M454.661,331.403c-0.115,0-0.232-0.013-0.35-0.041
						c-0.806-0.192-1.303-1.002-1.11-1.808c0.93-3.889,1.73-7.833,2.38-11.723c0.136-0.816,0.904-1.367,1.727-1.233
						c0.817,0.137,1.369,0.909,1.232,1.727c-0.661,3.957-1.476,7.97-2.421,11.926C455.954,330.94,455.339,331.403,454.661,331.403z
						 M37.552,317.725c-0.14,0-0.283-0.02-0.424-0.061c-0.795-0.233-1.249-1.067-1.015-1.862c0.992-3.367,2.189-7.143,3.66-11.543
						c0.262-0.786,1.112-1.211,1.898-0.947c0.786,0.263,1.21,1.112,0.947,1.898c-1.459,4.365-2.646,8.107-3.627,11.439
						C38.798,317.302,38.2,317.725,37.552,317.725z M458.618,307.616c-0.047,0-0.093-0.002-0.141-0.007
						c-0.824-0.076-1.432-0.807-1.354-1.632c0.371-4.017,0.581-8.028,0.623-11.924c0.009-0.822,0.679-1.483,1.5-1.483
						c0.005,0,0.011,0,0.017,0c0.828,0.009,1.492,0.688,1.483,1.517c-0.043,3.977-0.257,8.07-0.637,12.168
						C460.038,307.032,459.383,307.616,458.618,307.616z M45.11,294.83c-0.165,0-0.332-0.026-0.495-0.084
						c-0.782-0.273-1.194-1.129-0.921-1.911c1.225-3.503,2.535-7.209,3.925-11.147l0.081-0.231c0.276-0.78,1.136-1.19,1.914-0.914
						c0.781,0.275,1.191,1.133,0.915,1.914l-0.082,0.23c-1.39,3.935-2.698,7.639-3.922,11.138
						C46.31,294.443,45.729,294.83,45.11,294.83z M458.832,283.519c-0.773,0-1.43-0.594-1.493-1.379
						c-0.327-4.027-0.854-7.996-1.567-11.797c-0.152-0.814,0.384-1.598,1.198-1.751c0.814-0.154,1.598,0.384,1.751,1.198
						c0.731,3.902,1.272,7.977,1.608,12.107c0.067,0.825-0.548,1.549-1.374,1.616C458.914,283.517,458.873,283.519,458.832,283.519z
						 M53.121,272.082c-0.165,0-0.332-0.026-0.496-0.084c-0.782-0.275-1.194-1.13-0.92-1.911l1.023-2.928
						c0.94-2.692,1.784-5.536,2.509-8.452c0.199-0.803,1.013-1.294,1.817-1.094c0.804,0.2,1.294,1.014,1.094,1.818
						c-0.747,3.004-1.618,5.937-2.588,8.717l-1.024,2.929C54.32,271.696,53.74,272.082,53.121,272.082z M454.341,259.868
						c-0.639,0-1.23-0.41-1.432-1.052c-1.194-3.814-2.631-7.536-4.269-11.061c-0.349-0.751-0.023-1.643,0.729-1.993
						c0.748-0.349,1.642-0.023,1.992,0.729c1.693,3.644,3.178,7.489,4.411,11.429c0.247,0.791-0.192,1.632-0.983,1.88
						C454.64,259.846,454.49,259.868,454.341,259.868z M58.98,248.732c-0.071,0-0.143-0.005-0.214-0.015
						c-0.82-0.117-1.39-0.877-1.272-1.697c0.539-3.769,0.937-7.655,1.217-11.883c0.054-0.826,0.769-1.455,1.596-1.398
						c0.827,0.055,1.452,0.769,1.397,1.596c-0.284,4.304-0.69,8.265-1.24,12.109C60.356,248.192,59.714,248.732,58.98,248.732z
						 M444.171,238.074c-0.49,0-0.972-0.241-1.259-0.683c-1.419-2.184-2.96-4.326-4.582-6.368c-0.83-1.045-1.69-2.084-2.556-3.088
						c-0.541-0.628-0.472-1.574,0.156-2.115c0.627-0.543,1.574-0.471,2.115,0.156c0.892,1.034,1.777,2.104,2.633,3.181
						c1.682,2.116,3.279,4.336,4.749,6.6c0.451,0.695,0.254,1.624-0.44,2.075C444.735,237.996,444.452,238.074,444.171,238.074z
						 M60.662,224.684c-0.007,0-0.013,0-0.02,0c-0.828-0.011-1.491-0.691-1.48-1.52c0.017-1.314,0.025-2.631,0.025-3.951
						c0-2.515-0.028-5.152-0.086-8.061c-0.017-0.829,0.641-1.513,1.469-1.53c0.845-0.027,1.514,0.641,1.53,1.469
						c0.059,2.929,0.087,5.586,0.087,8.122c0,1.333-0.008,2.663-0.025,3.989C62.15,224.025,61.481,224.684,60.662,224.684z
						 M428.503,219.846c-0.358,0-0.718-0.127-1.005-0.386c-2.909-2.624-6.033-5.099-9.285-7.355
						c-0.681-0.472-0.85-1.407-0.377-2.087c0.472-0.681,1.407-0.848,2.088-0.377c3.355,2.329,6.58,4.883,9.584,7.592
						c0.615,0.555,0.664,1.503,0.109,2.119C429.321,219.679,428.913,219.846,428.503,219.846z M408.779,206.117
						c-0.238,0-0.478-0.057-0.703-0.176c-3.402-1.809-6.929-3.456-10.78-5.038c-0.767-0.315-1.133-1.191-0.818-1.958
						c0.314-0.765,1.189-1.133,1.957-0.818c3.944,1.62,7.559,3.309,11.05,5.165c0.732,0.389,1.009,1.297,0.62,2.029
						C409.835,205.828,409.315,206.117,408.779,206.117z M60.25,200.566c-0.804,0-1.47-0.638-1.498-1.448l-0.155-4.346
						c-0.093-2.574-0.185-5.146-0.268-7.712c-0.027-0.828,0.623-1.521,1.451-1.548c0.789-0.044,1.521,0.622,1.547,1.451
						c0.083,2.563,0.176,5.131,0.268,7.702l0.155,4.349c0.029,0.828-0.619,1.522-1.447,1.551
						C60.286,200.566,60.268,200.566,60.25,200.566z M386.546,196.878c-0.154,0-0.31-0.024-0.466-0.075
						c-3.478-1.135-7.236-2.254-11.491-3.422c-0.799-0.219-1.269-1.044-1.049-1.843c0.22-0.799,1.045-1.269,1.843-1.049
						c4.302,1.18,8.105,2.313,11.629,3.463c0.787,0.257,1.217,1.104,0.96,1.891C387.766,196.476,387.178,196.878,386.546,196.878z
						 M363.314,190.393c-0.121,0-0.244-0.015-0.366-0.046l-3.896-0.975c-2.603-0.65-5.209-1.302-7.813-1.968
						c-0.803-0.205-1.286-1.022-1.081-1.825c0.204-0.803,1.02-1.288,1.825-1.082c2.598,0.665,5.198,1.314,7.795,1.963l3.9,0.977
						c0.804,0.202,1.291,1.017,1.09,1.82C364.596,189.939,363.986,190.393,363.314,190.393z M339.964,184.316
						c-0.138,0-0.276-0.019-0.415-0.059c-4.223-1.213-8.011-2.404-11.581-3.643c-0.783-0.271-1.197-1.126-0.926-1.908
						c0.272-0.783,1.128-1.198,1.908-0.926c3.52,1.22,7.257,2.395,11.427,3.593c0.796,0.229,1.256,1.06,1.027,1.856
						C341.216,183.887,340.616,184.316,339.964,184.316z M59.541,176.453c-0.82,0-1.489-0.66-1.5-1.482
						c-0.018-1.495-0.028-2.986-0.028-4.473c0-2.703,0.032-5.205,0.099-7.648c0.022-0.828,0.714-1.508,1.54-1.458
						c0.828,0.023,1.481,0.712,1.459,1.541c-0.066,2.415-0.098,4.89-0.098,7.566c0,1.475,0.01,2.954,0.028,4.437
						c0.01,0.828-0.653,1.508-1.482,1.518C59.553,176.453,59.547,176.453,59.541,176.453z M317.222,176.328
						c-0.2,0-0.404-0.04-0.6-0.126c-3.828-1.672-7.507-3.493-10.935-5.413c-0.723-0.405-0.98-1.319-0.575-2.041
						c0.404-0.725,1.319-0.98,2.042-0.576c3.342,1.872,6.931,3.648,10.669,5.281c0.759,0.332,1.105,1.216,0.774,1.975
						C318.351,175.992,317.8,176.328,317.222,176.328z M296.258,164.52c-0.304,0-0.61-0.092-0.875-0.283
						c-1.543-1.11-3.073-2.276-4.548-3.467c-1.59-1.285-3.219-2.791-4.843-4.479c-0.574-0.597-0.556-1.546,0.041-2.121
						c0.598-0.575,1.545-0.556,2.121,0.041c1.537,1.598,3.073,3.019,4.566,4.225c1.432,1.156,2.917,2.289,4.415,3.366
						c0.673,0.484,0.825,1.421,0.342,2.094C297.184,164.303,296.724,164.52,296.258,164.52z M60.29,152.349
						c-0.044,0-0.089-0.002-0.135-0.006c-0.825-0.074-1.435-0.802-1.361-1.627c0.379-4.243,0.913-8.308,1.588-12.084
						c0.146-0.816,0.929-1.362,1.74-1.213c0.815,0.145,1.358,0.925,1.213,1.74c-0.659,3.69-1.182,7.668-1.553,11.823
						C61.713,151.762,61.059,152.349,60.29,152.349z M279.366,147.482c-0.458,0-0.91-0.209-1.205-0.605
						c-2.026-2.726-4.236-5.89-6.956-9.956c-0.46-0.689-0.275-1.62,0.413-2.081c0.686-0.459,1.62-0.276,2.081,0.413
						c2.69,4.024,4.873,7.148,6.87,9.833c0.494,0.665,0.355,1.605-0.31,2.099C279.991,147.386,279.677,147.482,279.366,147.482z
						 M64.638,128.663c-0.144,0-0.29-0.021-0.434-0.064c-0.793-0.24-1.242-1.077-1.002-1.87c1.212-4.015,2.679-7.869,4.357-11.455
						c0.351-0.751,1.243-1.075,1.994-0.722c0.75,0.351,1.074,1.244,0.723,1.995c-1.618,3.455-3.031,7.173-4.202,11.05
						C65.878,128.245,65.282,128.663,64.638,128.663z M265.807,127.509c-0.487,0-0.966-0.237-1.254-0.675
						c-1.962-2.98-4.292-6.498-6.706-9.997c-0.471-0.682-0.3-1.616,0.383-2.087c0.682-0.469,1.616-0.299,2.086,0.383
						c2.431,3.522,4.772,7.058,6.743,10.051c0.455,0.692,0.264,1.622-0.428,2.078C266.376,127.43,266.09,127.509,265.807,127.509z
						 M252.022,107.7c-0.452,0-0.9-0.204-1.195-0.592c-2.573-3.386-5.04-6.422-7.542-9.284c-0.545-0.624-0.481-1.571,0.142-2.117
						c0.622-0.546,1.571-0.482,2.117,0.142c2.547,2.914,5.056,6.003,7.671,9.443c0.501,0.66,0.373,1.601-0.287,2.102
						C252.658,107.6,252.338,107.7,252.022,107.7z M74.88,106.955c-0.292,0-0.587-0.085-0.847-0.263
						c-0.684-0.469-0.857-1.402-0.389-2.085c2.297-3.351,4.91-6.552,7.766-9.516c0.575-0.596,1.524-0.614,2.121-0.039
						c0.596,0.575,0.614,1.524,0.039,2.121c-2.741,2.844-5.248,5.916-7.451,9.13C75.828,106.727,75.358,106.955,74.88,106.955z
						 M91.488,89.637c-0.452,0-0.898-0.203-1.193-0.589c-0.503-0.659-0.377-1.6,0.281-2.103c3.131-2.391,6.561-4.667,10.194-6.764
						c0.719-0.413,1.635-0.167,2.049,0.549c0.414,0.718,0.168,1.635-0.55,2.049c-3.522,2.033-6.844,4.236-9.872,6.549
						C92.126,89.537,91.806,89.637,91.488,89.637z M236.088,89.613c-0.372,0-0.744-0.137-1.035-0.414
						c-2.949-2.809-5.991-5.404-9.042-7.714c-0.661-0.5-0.791-1.441-0.291-2.101c0.5-0.661,1.441-0.79,2.101-0.29
						c3.142,2.378,6.271,5.047,9.301,7.934c0.6,0.571,0.623,1.521,0.051,2.121C236.879,89.457,236.484,89.613,236.088,89.613z
						 M112.268,77.54c-0.575,0-1.124-0.332-1.372-0.892c-0.336-0.757,0.005-1.644,0.762-1.98c3.563-1.582,7.376-3.079,11.334-4.449
						c0.784-0.272,1.637,0.145,1.908,0.927c0.271,0.783-0.144,1.637-0.927,1.908c-3.878,1.342-7.612,2.808-11.098,4.356
						C112.678,77.498,112.471,77.54,112.268,77.54z M216.866,75.154c-0.251,0-0.505-0.063-0.739-0.196
						c-3.443-1.955-7.032-3.671-10.665-5.099c-0.771-0.303-1.151-1.173-0.848-1.944c0.303-0.772,1.173-1.152,1.944-0.848
						c3.766,1.479,7.483,3.257,11.05,5.282c0.72,0.409,0.973,1.325,0.564,2.045C217.895,74.881,217.388,75.154,216.866,75.154z
						 M134.992,69.539c-0.656,0-1.258-0.434-1.444-1.097c-0.223-0.798,0.243-1.626,1.041-1.849
						c4.002-1.118,7.979-2.085,11.821-2.871c0.809-0.167,1.604,0.356,1.77,1.168c0.166,0.812-0.357,1.604-1.169,1.77
						c-3.772,0.773-7.681,1.722-11.615,2.822C135.261,69.521,135.125,69.539,134.992,69.539z M194.529,66.376
						c-0.115,0-0.23-0.013-0.347-0.04c-3.763-0.89-7.689-1.544-11.669-1.941c-0.825-0.083-1.426-0.817-1.344-1.642
						c0.083-0.825,0.823-1.423,1.642-1.344c4.111,0.411,8.169,1.086,12.061,2.006c0.806,0.191,1.305,0.999,1.115,1.805
						C195.824,65.911,195.208,66.376,194.529,66.376z M158.61,64.756c-0.749,0-1.397-0.561-1.488-1.324
						c-0.097-0.823,0.491-1.568,1.314-1.666c4.141-0.49,8.238-0.773,12.177-0.842c0.876,0.004,1.512,0.646,1.526,1.474
						c0.015,0.829-0.645,1.512-1.473,1.526c-3.84,0.067-7.837,0.343-11.878,0.821C158.729,64.753,158.669,64.756,158.61,64.756z"
                class="svgShape colorffffff-1 selectable"></path>
            <defs>
                <path id="a" d="M151.667,129.686c0,0-41.07-3.734-35.4,63.195c0,0,1.664,30.895-12.126,41.893
							c0,0-30.534,35.131,19.699,47.607c0,0,83.723,23.97,121.152-16.417c0,0,32.178-23.967,1.807-47.114
							c0,0-16.416-11.984-16.252-44.981c0,0-1.642-56.8-41.533-57.621C189.014,116.249,159.138,112.096,151.667,129.686z"
                    class="selectable"></path>
            </defs>
            <use fill="#2f2f2f" overflow="visible" xlink:href="#a"
                class="svgShape color844e8c-4 selectable"></use>
            <clipPath id="b">
                <use overflow="visible" xlink:href="#a" fill="#000000"
                    class="svgShape color000000-6 selectable"></use>
            </clipPath>
            <path fill="#2f2f2f" d="
						M116.693,248.722c-0.018-3.914,1.085-8.532,1.984-12.426c1.205-5.22,4.35-8.367,7.357-12.574
						c4.129-5.777,5.476-12.262,8.244-18.675c1.743-4.039,3.976-8.099,7.749-10.583c4.322-2.846,10.933-2.276,15.976-2.732
						c7.242-0.655,14.539-0.311,21.766-0.011c8.037,0.334,15.838-1.646,23.934-0.756c3.924,0.431,7.81,1.502,11.253,3.426
						c4.242,2.371,5.312,5.86,8.389,9.337c2.613,2.952,5.546,4.904,7.79,8.27c2.087,3.13,3.605,6.509,5.47,9.723
						c2.533,4.366,5.951,7.117,5.04,12.741c-1.104,6.817-6.287,9.858-12.229,12.26c-12.546,5.07-26.077,7.737-38.745,12.666
						c-6.278,2.442-12.563,4.484-18.926,6.648c-5.1,1.735-9.912,4.26-15.3,5.049c-8.538,1.252-18.402-1.802-26.189-5.273
						c-5.787-2.58-8.459-7.351-11.153-12.847c-1.714-3.498-3.169-5.781-2.731-9.659c0.289-2.561,1.951-4.964,1.657-7.584"
                clip-path="url(#b)" opacity=".5" class="svgShape color844e8c-7 selectable"></path>
            <defs>
                <path id="c" d="M65.112,312.711c0,0,24.486-48.735,31.641-57.056c0,0,10.15-14.81,33.114-21.799
								c0,0,57.076-23.13,106.83-4.16c0,0,18.637,4.659,31.45,20.468l23.962,39.602c0,0-23.84,19.219-45.227,29.064l-9.233,75.862
								l-116.791,0.615c0,0-8.155-62.473-8.31-69.243C112.548,326.065,72.071,315.785,65.112,312.711z"
                    class="selectable"></path>
            </defs>
            <use fill="#558c74" overflow="visible" xlink:href="#c"
                class="svgShape color558c74-10 selectable"></use>
            <clipPath id="d">
                <use overflow="visible" xlink:href="#c" fill="#000000"
                    class="svgShape color000000-12 selectable"></use>
            </clipPath>
            <path fill="none" stroke="#000000" stroke-linecap="round" stroke-linejoin="round"
                stroke-width=".488" d="
							M86.749,347.483c0,0,12.162-6.438,24.861-5.007" clip-path="url(#d)"
                class="svgStroke colorStroke000000-13 selectable"></path>
            <path fill="#ffffff"
                d="M103.877 308.125c-1.406 1.482-7.805-2.422-7.805-2.422s-4.575 5.938-6.419 5.058c-1.844-.88-.109-8.172-.109-8.172s-7.06-2.518-6.793-4.543c.267-2.025 7.738-2.628 7.738-2.628s.213-7.493 2.221-7.865c2.009-.372 4.891 6.547 4.891 6.547s7.191-2.113 8.166-.317c.975 1.796-4.715 6.675-4.715 6.675S105.284 306.644 103.877 308.125zM151.551 322.008c-1.406 1.482-7.805-2.422-7.805-2.422s-4.575 5.938-6.419 5.058c-1.844-.88-.109-8.172-.109-8.172s-7.06-2.518-6.793-4.543c.267-2.025 7.738-2.628 7.738-2.628s.213-7.493 2.221-7.865c2.009-.372 4.891 6.547 4.891 6.547s7.191-2.113 8.166-.317c.975 1.796-4.715 6.675-4.715 6.675S152.958 320.527 151.551 322.008zM115.446 351.201c-1.406 1.481-7.805-2.422-7.805-2.422s-4.575 5.938-6.419 5.058c-1.844-.88-.109-8.172-.109-8.172s-7.06-2.518-6.793-4.543c.267-2.025 7.738-2.628 7.738-2.628s.213-7.493 2.221-7.865c2.009-.372 4.891 6.547 4.891 6.547s7.191-2.113 8.166-.317c.975 1.796-4.715 6.675-4.715 6.675S116.852 349.719 115.446 351.201zM156.113 362.857c-1.406 1.481-7.805-2.422-7.805-2.422s-4.575 5.938-6.419 5.058c-1.844-.88-.109-8.172-.109-8.172s-7.059-2.518-6.793-4.543c.267-2.025 7.738-2.628 7.738-2.628s.213-7.493 2.221-7.865c2.009-.372 4.891 6.547 4.891 6.547s7.191-2.113 8.166-.317c.975 1.796-4.715 6.675-4.715 6.675S157.519 361.375 156.113 362.857zM202.474 374.513c-1.406 1.481-7.805-2.422-7.805-2.422s-4.575 5.938-6.419 5.058c-1.844-.88-.109-8.172-.109-8.172s-7.06-2.518-6.793-4.543c.267-2.025 7.738-2.628 7.738-2.628s.213-7.493 2.221-7.865c2.009-.372 4.891 6.547 4.891 6.547s7.191-2.113 8.166-.317-4.715 6.675-4.715 6.675S203.88 373.032 202.474 374.513zM229.976 349.35c-1.406 1.482-7.805-2.422-7.805-2.422s-4.575 5.938-6.419 5.058c-1.844-.88-.109-8.172-.109-8.172s-7.059-2.518-6.793-4.543c.267-2.025 7.738-2.628 7.738-2.628s.213-7.493 2.221-7.865c2.009-.372 4.891 6.547 4.891 6.547s7.191-2.113 8.166-.317c.975 1.796-4.715 6.675-4.715 6.675S231.382 347.869 229.976 349.35zM253.112 319.782c-1.406 1.481-7.806-2.422-7.806-2.422s-4.575 5.938-6.419 5.058c-1.844-.88-.109-8.172-.109-8.172s-7.06-2.518-6.793-4.543c.267-2.025 7.738-2.628 7.738-2.628s.213-7.493 2.221-7.865c2.009-.372 4.891 6.547 4.891 6.547s7.191-2.113 8.166-.317c.975 1.796-4.715 6.675-4.715 6.675S254.518 318.3 253.112 319.782zM243.958 282.338c-1.406 1.481-7.806-2.422-7.806-2.422s-4.575 5.938-6.419 5.058c-1.844-.88-.109-8.172-.109-8.172s-7.06-2.518-6.793-4.543c.267-2.025 7.738-2.628 7.738-2.628s.213-7.493 2.221-7.865c2.009-.372 4.891 6.547 4.891 6.547s7.191-2.113 8.166-.317c.975 1.796-4.715 6.675-4.715 6.675S245.364 280.857 243.958 282.338zM204.527 260.581c-1.406 1.481-7.806-2.422-7.806-2.422s-4.575 5.938-6.419 5.058c-1.844-.88-.109-8.172-.109-8.172s-7.06-2.518-6.793-4.543c.267-2.025 7.738-2.628 7.738-2.628s.213-7.493 2.221-7.865c2.009-.372 4.891 6.547 4.891 6.547s7.191-2.113 8.166-.317c.975 1.796-4.715 6.675-4.715 6.675S205.933 259.099 204.527 260.581zM286.825 293.995c-1.406 1.481-7.806-2.422-7.806-2.422s-4.575 5.938-6.419 5.058c-1.845-.88-.109-8.172-.109-8.172s-7.061-2.518-6.793-4.543c.267-2.025 7.737-2.628 7.737-2.628s.213-7.493 2.222-7.865c2.008-.372 4.891 6.547 4.891 6.547s7.191-2.113 8.166-.317c.975 1.796-4.715 6.675-4.715 6.675S288.231 292.513 286.825 293.995zM272.87 260.581c-1.406 1.481-7.806-2.422-7.806-2.422s-4.575 5.938-6.419 5.058c-1.845-.88-.109-8.172-.109-8.172s-7.061-2.518-6.793-4.543c.267-2.025 7.737-2.628 7.737-2.628s.213-7.493 2.222-7.865c2.008-.372 4.891 6.547 4.891 6.547s7.191-2.113 8.166-.317c.975 1.796-4.715 6.675-4.715 6.675S274.276 259.099 272.87 260.581zM239.553 240.409c-1.406 1.481-7.806-2.422-7.806-2.422s-4.575 5.938-6.419 5.058c-1.845-.88-.109-8.172-.109-8.172s-7.061-2.518-6.793-4.543c.267-2.025 7.737-2.628 7.737-2.628s.213-7.493 2.222-7.865c2.008-.372 4.891 6.547 4.891 6.547s7.191-2.113 8.166-.317c.975 1.796-4.715 6.675-4.715 6.675S240.959 238.927 239.553 240.409zM190.906 337.694c-1.406 1.481-7.805-2.422-7.805-2.422s-4.575 5.938-6.419 5.058c-1.844-.88-.109-8.172-.109-8.172s-7.06-2.518-6.793-4.543c.267-2.025 7.738-2.628 7.738-2.628s.213-7.493 2.221-7.865c2.009-.372 4.891 6.547 4.891 6.547s7.191-2.113 8.166-.317c.975 1.796-4.715 6.675-4.715 6.675S192.313 336.212 190.906 337.694zM177.856 291.322c-1.406 1.481-7.805-2.422-7.805-2.422s-4.575 5.938-6.419 5.058c-1.844-.88-.109-8.172-.109-8.172s-7.06-2.518-6.793-4.543c.267-2.025 7.738-2.628 7.738-2.628s.213-7.493 2.221-7.865c2.009-.372 4.891 6.547 4.891 6.547s7.191-2.113 8.166-.317c.975 1.796-4.715 6.675-4.715 6.675S179.262 289.84 177.856 291.322zM136.667 240.409c-1.406 1.481-7.805-2.422-7.805-2.422s-4.575 5.938-6.419 5.058c-1.844-.88-.109-8.172-.109-8.172s-7.059-2.518-6.793-4.543c.267-2.025 7.738-2.628 7.738-2.628s.213-7.493 2.221-7.865c2.009-.372 4.891 6.547 4.891 6.547s7.191-2.113 8.166-.317c.975 1.796-4.715 6.675-4.715 6.675S138.073 238.927 136.667 240.409zM215.78 307.576c-1.406 1.481-7.805-2.422-7.805-2.422s-4.575 5.938-6.419 5.058c-1.844-.88-.109-8.172-.109-8.172s-7.059-2.518-6.793-4.543c.267-2.025 7.738-2.628 7.738-2.628s.213-7.493 2.221-7.865c2.009-.372 4.891 6.547 4.891 6.547s7.191-2.113 8.166-.317-4.715 6.675-4.715 6.675S217.187 306.094 215.78 307.576zM138.162 279.667c-1.406 1.482-7.805-2.422-7.805-2.422s-4.575 5.938-6.42 5.058c-1.844-.88-.109-8.172-.109-8.172s-7.06-2.518-6.793-4.543c.267-2.025 7.738-2.628 7.738-2.628s.213-7.493 2.221-7.865c2.009-.372 4.891 6.547 4.891 6.547s7.191-2.113 8.166-.317c.975 1.796-4.715 6.675-4.715 6.675S139.568 278.185 138.162 279.667zM100.662 265.553c-1.406 1.482-7.805-2.422-7.805-2.422s-4.575 5.938-6.419 5.058c-1.844-.88-.109-8.172-.109-8.172s-7.06-2.518-6.793-4.543c.267-2.025 7.738-2.628 7.738-2.628s.213-7.493 2.221-7.865c2.009-.372 4.891 6.547 4.891 6.547s7.191-2.113 8.166-.317c.975 1.796-4.715 6.675-4.715 6.675S102.068 264.072 100.662 265.553z"
                clip-path="url(#d)" class="svgShape colorffffff-14 selectable"></path>
            <path fill="#558c74" d="
							M105.86,337.555c10.742,4.08,27.331-3.994,38.002-6.139c12.045-2.421,23.648-5.75,35.486-8.847
							c16.906-4.424,33.61-9.571,50.647-13.513c14.425-3.337,26.867-1.347,30.738,14.875c2.706,11.341,0.897,25.957-1.873,37.118
							c-2.049,8.253-3.764,15.171-8.377,22.107c-4.271,6.421-6.811,13.777-13.589,18.285c-10.783,7.173-26.124,10.134-38.871,10.113
							c-13.711-0.022-26.981-0.64-40.663,0.875c-10.584,1.171-21.941,1.647-32.012-2.363c-12.071-4.809-19.309-24.299-21.39-36.613
							c-1.904-11.265-2.472-24.663,3.902-34.398" clip-path="url(#d)"
                opacity=".3" class="svgShape color558c74-15 selectable"></path>
            <g clip-path="url(#d)">
                <path fill="#ffd892" d="M124.543,233.217c0,0,22.116,29.381,57.631,25.99c0,0,34.062-2.259,58.922-32.77
								C241.097,226.437,177.815,202.868,124.543,233.217z"
                    class="svgShape colorffd892-17 selectable"></path>
                <path fill="#ffd892" d="M124.543,233.217c0,0,22.116,29.381,57.631,25.99c0,0,34.062-2.259,58.922-32.77
								C241.097,226.437,177.815,202.868,124.543,233.217z" opacity=".5"
                    class="svgShape colorffd892-18 selectable"></path>
            </g>
            <path fill="#558c74" d="M112.324,318.474c-0.259,0-0.478-0.199-0.498-0.462l-2.862-37.561
							c-0.021-0.275,0.185-0.516,0.46-0.537c0.282-0.021,0.516,0.185,0.537,0.461l2.862,37.561c0.021,0.275-0.185,0.516-0.461,0.537
							C112.35,318.474,112.337,318.474,112.324,318.474z" opacity=".5"
                class="svgShape color558c74-19 selectable"></path>
            <g>
                <path fill="#ffd892" d="M133.044,187.982c0,0-3.436-4.174-7.885-1.585c0,0-7.277,6.376-2.338,15.734
							c0,0,4.766,8.752,16.291,8.579c0,0,11.371,43.042,44.484,39.514c0,0,26.452-3.037,30.959-46.241
							c0,0,9.013-2.351,10.189-12.736c0,0,2.057-9.601-5.29-11.267c0,0-2.939-0.98-5.291,0.49c0,0-3.013-41.504-45.622-36.901
							C168.541,143.57,126.111,150.837,133.044,187.982z"
                    class="svgShape colorffd892-21 selectable"></path>
                <defs>
                    <path id="e" d="M152.317,202.232c0-1.853,3.739-4.526,9.495-4.526c5.755,0,9.361,2.096,9.361,3.949
										c0,1.852-3.517,4.259-9.273,4.259C156.145,205.914,152.317,204.085,152.317,202.232z"
                        class="selectable"></path>
                </defs>
                <use fill="#ffffff" overflow="visible" xlink:href="#e"
                    class="svgShape colorffffff-24 selectable"></use>
                <clipPath id="f">
                    <use overflow="visible" xlink:href="#e" fill="#000000"
                        class="svgShape color000000-26 selectable"></use>
                </clipPath>
                <path fill="#2f2f2f" d="
									M156.778,205.138c0-2.817,2.283-5.101,5.1-5.101c2.817,0,5.101,2.284,5.101,5.101c0,2.817-2.284,5.101-5.101,5.101
									C159.061,210.239,156.778,207.955,156.778,205.138z"
                    clip-path="url(#f)" class="svgShape color422746-27 selectable"></path>
                <defs>
                    <path id="g" d="M187.357,200.386c0-1.853,3.739-4.526,9.495-4.526c5.755,0,9.361,2.096,9.361,3.949
										c0,1.853-3.517,4.259-9.273,4.259C191.186,204.068,187.357,202.239,187.357,200.386z"
                        class="selectable"></path>
                </defs>
                <use fill="#ffffff" overflow="visible" xlink:href="#g"
                    class="svgShape colorffffff-30 selectable"></use>
                <clipPath id="h">
                    <use overflow="visible" xlink:href="#g" fill="#000000"
                        class="svgShape color000000-32 selectable"></use>
                </clipPath>
                <path fill="#2f2f2f" d="
									M191.818,203.292c0-2.817,2.283-5.101,5.1-5.101c2.817,0,5.101,2.284,5.101,5.101c0,2.817-2.284,5.101-5.101,5.101
									C194.102,208.393,191.818,206.109,191.818,203.292z"
                    clip-path="url(#h)" class="svgShape color422746-33 selectable"></path>
                <path fill="#2f2f2f"
                    d="M149.225 191.307c-.308-1.514 1.975-3.256 5.098-3.891 3.123-.635 5.904.079 6.212 1.593.308 1.514-1.975 3.256-5.099 3.891C152.314 193.535 149.533 192.821 149.225 191.307zM194.039 186.642c.376-1.499 3.188-2.084 6.278-1.307 3.091.776 5.292 2.621 4.915 4.12-.377 1.498-3.188 2.083-6.279 1.307C195.863 189.985 193.663 188.14 194.039 186.642z"
                    class="svgShape color844e8c-34 selectable"></path>
                <path fill="#422746" d="M181.33,222.622c-2.653,0-4.983-1.121-5.145-1.2c-0.248-0.122-0.35-0.421-0.228-0.669
									c0.123-0.248,0.423-0.348,0.669-0.229c0.059,0.029,6.027,2.889,9.271-0.844c0.181-0.21,0.498-0.23,0.705-0.05
									c0.208,0.181,0.231,0.497,0.05,0.705C185.125,222.093,183.151,222.622,181.33,222.622z"
                    class="svgShape color422746-35 selectable"></path>
                <path fill="#422746" d="M180.626,231.478c-6.583,0-11.982-2.829-12.073-2.878c-0.243-0.13-0.335-0.433-0.204-0.676
									c0.13-0.244,0.433-0.335,0.677-0.205c0.145,0.078,14.599,7.631,24.614-2.59c0.192-0.197,0.508-0.201,0.707-0.007
									c0.197,0.193,0.2,0.51,0.007,0.707C190.094,230.176,185.088,231.478,180.626,231.478z"
                    class="svgShape color422746-36 selectable"></path>
                <path fill="#ffd892"
                    d="M127.233 199.237c-.549-2.971.658-5.685 2.697-6.062 2.039-.376 4.137 1.726 4.686 4.697.549 2.971-.658 5.685-2.697 6.061C129.88 204.311 127.782 202.208 127.233 199.237zM155.657 212.022c4.581.624 7.949 3.679 7.521 6.824-.429 3.145-4.491 5.188-9.074 4.563-4.582-.624-7.95-3.679-7.52-6.825C147.012 213.439 151.073 211.395 155.657 212.022zM200.353 206.514c4.341-1.592 8.747-.468 9.84 2.512 1.092 2.98-1.542 6.686-5.884 8.278-4.342 1.593-8.747.469-9.84-2.512C193.376 211.812 196.009 208.105 200.353 206.514zM213.204 190.952c.155-3.018 1.96-5.378 4.03-5.271 2.071.106 3.624 2.639 3.469 5.656-.154 3.017-1.959 5.377-4.029 5.271C214.602 196.501 213.049 193.969 213.204 190.952z"
                    opacity=".5" class="svgShape colorffd892-37 selectable"></path>
                <path fill="#422746"
                    d="M161.362 215.091c-1.401-.037-5.007-.412-8.221-3.098-4.004-3.347-5.987-8.98-5.894-16.744.002-.198.159-.36.356-.37l27.076-1.31c.175-.005.355.123.388.31.077.439 1.825 10.838-3.237 16.955-2.28 2.756-5.592 4.185-9.845 4.25C161.985 215.085 161.754 215.102 161.362 215.091zM147.995 195.612c-.064 17.046 10.216 18.647 13.387 18.729.355.009.561-.004.571-.005 4.044-.062 7.165-1.4 9.299-3.978 4.357-5.262 3.379-14.207 3.126-16.023L147.995 195.612zM197.267 212.794c-4.233.412-7.685-.638-10.259-3.121-5.715-5.512-5.141-16.041-5.114-16.486.012-.19.175-.337.35-.351l27.052-1.73c.198-.013.372.132.396.328.961 7.704-.379 13.524-3.982 17.298-2.893 3.029-6.435 3.806-7.822 3.999C197.499 212.784 197.268 212.794 197.267 212.794zM182.63 193.563c-.048 1.833-.018 10.831 4.9 15.572 2.409 2.322 5.66 3.303 9.686 2.912.01-.001.216-.01.568-.059 3.141-.437 13.178-3.179 11.206-20.11L182.63 193.563z"
                    class="svgShape color422746-38 selectable"></path>
                <path fill="#422746"
                    d="M147.778 195.984c-.068 0-.138-.019-.2-.059l-13.9-8.819c-.175-.111-.227-.342-.116-.517.11-.175.342-.228.517-.116l13.899 8.819c.175.111.227.342.116.517C148.024 195.923 147.902 195.984 147.778 195.984zM174.962 196.464c-.196 0-.361-.153-.374-.352-.013-.206.145-.385.351-.397l7.296-.457c.208-.026.385.144.398.351.013.206-.145.385-.351.397l-7.296.457C174.978 196.464 174.97 196.464 174.962 196.464z"
                    class="svgShape color422746-39 selectable"></path>
                <g>
                    <defs>
                        <path id="i" d="M138.664,201.066c0,0,3.509,1.037,2.656-9.897c0,0,20.863-12.254,25.131-28.373
								c0,0,10.337,18.287,23.519,15.459c0,0,2.751,12.631,17.544,11.406c0,0-0.618,5.404,3.611,5.117c0,0,3.799,1.664,3.343-14.166
								c0,0,2.841-48.518-51.768-42.018c0,0-39.213,12.369-29.848,48.362C132.85,186.957,134.263,201.479,138.664,201.066z"
                            class="selectable"></path>
                    </defs>
                    <use fill="#2f2f2f" overflow="visible" xlink:href="#i"
                        class="svgShape color844e8c-43 selectable"></use>
                    <clipPath id="j">
                        <use overflow="visible" xlink:href="#i" fill="#000000"
                            class="svgShape color000000-45 selectable"></use>
                    </clipPath>
                    <path fill="#2f2f2f" d="
							M131.863,190.555c0.331,2.802,3.959,6.613,6.803,4.074c1.335-1.192,1.313-4.412,1.296-6.048
							c5.09,3.354,15.191-10.87,17.304-14.226c2.852-4.532,6.334-8.624,9.306-12.961c1.556,3.559,6.678,5.936,10.066,7.473
							c4.471,2.028,8.449,0.949,12.828,0.032c3.326,5.265,6.076,10.678,13.281,8.689c1.885,6.406,9.146,6.6,14.079,4.256
							c1.544,2.834,2.25,7.867,1.325,11.023c-1.475,5.032-6.669,5.685-11.153,5.451c-5.016-0.261-8.807-2.735-13.006-5.075
							c-6.575-3.663-14.993-4.686-22.388-4.005c-7.411,0.683-13.062,4.988-19.121,8.886c-3.868,2.489-8.632,6.121-13.602,5.944
							c-4.959-0.177-7.746-8.529-5.774-12.537c-0.287-0.217-0.633-0.382-0.992-0.475"
                        clip-path="url(#j)" opacity=".5"
                        class="svgShape color844e8c-46 selectable"></path>
                </g>
            </g>
            <g>
                <path fill="#844e8c"
                    d="M155.11 150.555c0 0 .009.109.025.315-.002.206.084.504.021.892-.028.391-.079.87-.206 1.395-.096.537-.28 1.121-.499 1.749-.223.627-.491 1.296-.792 1.993-.305.685-.622 1.442-1.008 2.164-.738 1.469-1.558 3.018-2.376 4.567-.853 1.532-1.631 3.101-2.52 4.493-.863 1.405-1.718 2.687-2.425 3.799-.707 1.112-1.35 2.006-1.774 2.645-.443.628-.696.988-.696.988s.192-.396.529-1.088c.355-.681.825-1.674 1.454-2.826.629-1.152 1.332-2.512 2.138-3.938.417-.704.79-1.468 1.194-2.23.402-.763.811-1.539 1.219-2.314.836-1.54 1.67-3.082 2.483-4.51.407-.717.769-1.398 1.128-2.064.349-.661.662-1.293.926-1.887.249-.598.505-1.141.664-1.641.189-.498.292-.937.369-1.307.105-.365.085-.679.118-.88C155.1 150.665 155.11 150.555 155.11 150.555zM148.36 145.305c0 0-.186.46-.512 1.266-.345.796-.802 1.951-1.415 3.305-.304.678-.633 1.413-.981 2.19-.355.774-.661 1.618-1.037 2.465-.716 1.709-1.514 3.515-2.308 5.323-.774 1.821-1.544 3.643-2.3 5.338-.76 1.694-1.469 3.276-2.076 4.631-.6 1.359-1.157 2.469-1.52 3.257-.383.78-.602 1.226-.602 1.226s.153-.472.421-1.298c.289-.818.662-2.003 1.179-3.396.517-1.394 1.086-3.034 1.784-4.757.679-1.73 1.438-3.562 2.195-5.395.819-1.811 1.636-3.622 2.433-5.304.395-.842.773-1.66 1.178-2.409.401-.751.78-1.462 1.129-2.118.694-1.314 1.327-2.382 1.744-3.143C148.11 145.734 148.36 145.305 148.36 145.305zM142.86 141.555c0 0-.065.107-.188.308-.132.194-.28.509-.552.855-.291.327-.617.78-1.064 1.197-.429.444-.933.917-1.498 1.412-.556.499-1.146 1.047-1.72 1.658-.291.303-.533.653-.811.987-.259.347-.459.737-.701 1.11-.399.789-.78 1.723-1.202 2.599-.376.9-.723 1.821-1.089 2.737-.707 1.861-1.429 3.735-2.173 5.47-.378.872-.795 1.675-1.203 2.446-.399.76-.776 1.479-1.124 2.142-.325.67-.642 1.277-.89 1.829-.271.545-.436 1.045-.605 1.448-.281.822-.432 1.304-.432 1.304s.02-.124.059-.355c.046-.229.078-.578.187-1.005.123-.421.234-.951.444-1.527.184-.588.433-1.234.727-1.931.303-.688.631-1.433.978-2.222.343-.774.697-1.611 1.047-2.468.655-1.752 1.354-3.621 2.053-5.49.386-.936.757-1.883 1.151-2.793.436-.895.834-1.739 1.303-2.607.281-.404.514-.837.826-1.188.321-.34.612-.699.938-.995.646-.601 1.284-1.116 1.878-1.58.589-.459 1.128-.881 1.607-1.254.491-.365.831-.749 1.159-1.04.3-.314.508-.595.663-.77C142.779 141.651 142.86 141.555 142.86 141.555zM173.86 139.305c0 0 .131.014.378.039.246.035.611.043 1.066.132.441.137 1.027.214 1.624.475.302.123.635.233.968.388.325.17.667.35 1.023.537.689.415 1.422.89 2.152 1.451.732.558 1.475 1.183 2.201 1.871.726.73 1.414 1.447 2.134 2.208.737.725 1.362 1.618 2.053 2.43.33.421.676.833.988 1.261.304.434.606.866.906 1.294.602.855 1.19 1.701 1.694 2.56 1.045 1.701 1.967 3.288 2.712 4.709.373.71.646 1.4.846 2.025.175.633.311 1.189.326 1.662.073.466-.006.835-.028 1.081-.027.246-.042.377-.042.377s-.004-.132-.012-.381c-.01-.247.002-.606-.111-1.052-.062-.451-.251-.974-.482-1.559-.259-.578-.591-1.208-.989-1.881-.801-1.342-1.88-2.862-2.958-4.501-.52-.836-1.149-1.636-1.743-2.479-.3-.419-.603-.842-.906-1.266-.311-.418-.651-.81-.975-1.217-.668-.802-1.244-1.659-1.983-2.402-.696-.763-1.38-1.513-2.043-2.239-.696-.688-1.369-1.351-2.045-1.937-.673-.59-1.35-1.093-1.99-1.538-.659-.414-1.265-.792-1.84-1.061-.557-.317-1.092-.441-1.516-.625C174.377 139.426 173.86 139.305 173.86 139.305zM170.61 130.305c0 0 .224.04.643.117.419.066 1.031.219 1.821.267.783.081 1.742.149 2.85.22.555.06 1.145.124 1.768.191.643.108 1.25.28 1.921.427.66.172 1.36.276 2.061.522.703.243 1.43.493 2.177.751.76.238 1.498.562 2.252.894.755.33 1.533.66 2.3 1.039.76.392 1.534.791 2.316 1.194.832.403 1.531.896 2.314 1.347.743.516 1.513 1.053 2.228 1.628.693.601 1.425 1.167 2.066 1.828l.979.973.915 1.026c.625.669 1.17 1.399 1.74 2.098.557.709 1.069 1.442 1.59 2.155.489.731.973 1.454 1.448 2.166 1.864 2.84 3.558 5.563 4.72 8.056.268.633.525 1.239.77 1.816.183.6.355 1.169.518 1.704.186.527.259 1.047.336 1.524.079.475.152.912.218 1.306.051.797.028 1.427.042 1.851.004.425.007.652.007.652s-.077-.912-.242-2.477c-.089-.385-.188-.81-.296-1.274-.105-.463-.207-.965-.422-1.474-.191-.513-.394-1.059-.608-1.634-.264-.555-.54-1.139-.829-1.748-.625-1.195-1.357-2.462-2.21-3.759-.841-1.303-1.789-2.646-2.727-4.066-.479-.697-.966-1.406-1.459-2.124-.521-.694-1.034-1.409-1.589-2.097-.568-.677-1.11-1.387-1.729-2.031l-.905-.99-.961-.936c-.615-.652-1.316-1.206-1.982-1.798-.685-.564-1.389-1.069-2.104-1.582-.759-.449-1.512-.986-2.256-1.351-.769-.409-1.528-.812-2.275-1.209-.751-.388-1.518-.706-2.246-1.068-.732-.356-1.449-.704-2.171-.959-.718-.279-1.416-.55-2.09-.813-.674-.268-1.382-.401-2.032-.597-.65-.173-1.299-.367-1.871-.5-.606-.104-1.181-.202-1.722-.294-1.095-.138-2.054-.265-2.844-.397-.796-.091-1.385-.308-1.799-.405C170.829 130.364 170.61 130.305 170.61 130.305z"
                    opacity=".5" class="svgShape color844e8c-48 selectable"></path>
                <path fill="#844e8c" d="M178.61,125.555c0,0,0.996,0.121,2.74,0.334c0.868,0.132,1.929,0.26,3.136,0.468
							c0.604,0.105,1.247,0.218,1.925,0.336c0.675,0.136,1.378,0.314,2.116,0.482c1.464,0.378,3.052,0.82,4.668,1.478
							c0.827,0.28,1.627,0.689,2.453,1.091c0.847,0.363,1.624,0.896,2.435,1.401c1.64,1.021,3.116,2.232,4.682,3.504
							c0.751,0.654,1.504,1.315,2.248,1.994c0.718,0.705,1.468,1.385,2.165,2.116c1.393,1.464,2.733,2.98,3.96,4.546
							c0.61,0.786,1.232,1.553,1.777,2.362c0.563,0.797,1.128,1.577,1.617,2.391c0.502,0.804,1.021,1.58,1.432,2.397
							c0.43,0.806,0.876,1.579,1.22,2.38c0.763,1.563,1.341,3.106,1.838,4.537c0.213,0.728,0.417,1.425,0.612,2.088
							c0.163,0.671,0.263,1.322,0.386,1.924c0.057,0.302,0.111,0.594,0.164,0.876c0.026,0.287,0.052,0.563,0.077,0.828
							c0.049,0.529,0.094,1.015,0.135,1.454c0.042,0.879-0.019,1.574-0.017,2.043c-0.012,0.47-0.018,0.721-0.018,0.721
							s-0.013-0.251-0.037-0.721c-0.033-0.469-0.04-1.159-0.123-2.027c-0.065-0.432-0.137-0.911-0.215-1.432
							c-0.039-0.26-0.079-0.53-0.122-0.811c-0.068-0.276-0.138-0.561-0.21-0.856c-0.155-0.588-0.288-1.22-0.485-1.871
							c-0.216-0.645-0.442-1.324-0.679-2.031c-0.539-1.391-1.157-2.886-1.96-4.397c-0.363-0.774-0.83-1.521-1.279-2.297
							c-0.438-0.783-0.938-1.551-1.448-2.333c-0.489-0.794-1.055-1.557-1.618-2.334c-0.545-0.791-1.167-1.539-1.776-2.306
							c-1.226-1.529-2.565-3.005-3.95-4.435c-0.679-0.728-1.409-1.405-2.109-2.108c-0.724-0.676-1.46-1.336-2.19-1.987
							c-1.48-1.234-3.008-2.51-4.554-3.49c-0.778-0.501-1.531-1.014-2.336-1.401c-0.789-0.417-1.553-0.843-2.353-1.145
							c-1.556-0.696-3.102-1.184-4.535-1.607c-0.723-0.194-1.416-0.379-2.075-0.556c-0.666-0.155-1.298-0.302-1.892-0.439
							c-1.189-0.274-2.238-0.46-3.096-0.641C179.595,125.746,178.61,125.555,178.61,125.555z"
                    opacity=".5" class="svgShape color844e8c-49 selectable"></path>
            </g>
            <g>
                <path fill="#ffc107" d="M324.177,104.415c-2.656-2.657-5.452-42.792,0-51.043c12.587-5.874,55.671-5.82,72.022-0.559
					c5.542,11.334,3.7,43.411-0.56,52.721c-6.941,6.199-26.431,2.657-26.431,2.657s-7.935,17.701-11.609,17.48
					c-4.946-0.296-13.564-19.159-13.564-19.159S325.996,108.051,324.177,104.415z"
                    class="svgShape colorcf8fd8-51 selectable"></path>
                <path fill="#ffffff" d="M359.096,97.979c0,0-14.539-10.379-14.551-20.368c0,0-2.327-12.092,8.231-11.361
					c0,0,7.038,0.132,7.79,9.553c0,0,3.135-8.627,10.345-8.892c0,0,9.304,0.012,5.028,14.489
					C375.939,81.4,369.508,93.082,359.096,97.979z"
                    class="svgShape colorffffff-52 selectable"></path>
            </g>
            <g>
                <rect width="499.553" height="123.63" x=".447" y="376.371" fill="#f9d9ff"
                    class="svgShape colorf9d9ff-54 selectable"></rect>
                <path fill="#ffffff"
                    d="M56.393 464.474c-8.64 0-14.405-1.906-17.206-5.706-3.405-4.619-1.144-10.104-.701-11.071 2.271-6.543 10.852-11.105 25.511-13.565 10.561-1.771 20.365-1.793 20.778-1.793l.001 4c-10.647.004-39.043 2.302-42.535 12.743l-.106.257c-.016.031-1.94 4.083.29 7.077 1.814 2.436 7.865 6.029 28.003 2.749l.644 3.947C65.501 464.021 60.605 464.474 56.393 464.474zM197.203 474.019c-6.744 0-17.4-.104-25.601-.668-13.06-.898-20.125-2.936-20.419-3.022l1.124-3.839c.068.021 6.995 2.006 19.57 2.871 12.233.841 30.067.645 31.696.625 6.086-.83 10.385-3.065 12.777-6.646 3.517-5.262 1.844-11.746 1.826-11.811-.967-3.367-14.559-8.779-41.721-10.154l.202-3.994c7.053.356 42.385 2.665 45.374 13.081.1.373 2.154 8.351-2.355 15.101-3.074 4.602-8.355 7.429-15.693 8.403l-.235.018C203.678 473.985 201.09 474.019 197.203 474.019z"
                    class="svgShape colorffffff-55 selectable"></path>
                <defs>
                    <path id="k" d="M69.54,450.526c4.09-8.315,7.993-16.814,13.793-17.886c15.878-3.853,24.089,2.378,48.706,3.455
								c24.616,1.076,39.669-2.952,49.759,0.854c3.712,1.399-12.411,20.732-12.411,20.732s-8.711,14.102-16.275,15.431
								c-15.401,2.707-44.524-0.738-44.524-0.738s-35.376-3.866-41.617-6.47C63.385,463.47,65.449,458.841,69.54,450.526z"
                        class="selectable"></path>
                </defs>
                <use fill="#5da585" overflow="visible" xlink:href="#k"
                    class="svgShape color5da585-58 selectable"></use>
                <clipPath id="l">
                    <use overflow="visible" xlink:href="#k" fill="#000000"
                        class="svgShape color000000-60 selectable"></use>
                </clipPath>
                <path fill="#5da585" d="
							M62.705,461.693c3.524,0.867,7.196,1.444,10.796,2.163c2.094,0.417,4.035,1.129,6.175,1.336
							c2.285,0.223,4.574,0.116,6.862,0.334c7.777,0.738,15.318,1.181,23.009,2.541c6.263,1.108,12.839,0.98,19.158,1.617
							c5.939,0.598,11.439-0.183,17.308-0.982c3.288-0.448,6.264-1.72,9.359-2.838c2.706-0.978,5.944-3.188,8.967-2.674
							c2.679,0.455,3.026,4.573,1.593,6.374c-1.567,1.968-4.64,3.597-6.731,4.97c-2.616,1.72-4.674,2.499-7.792,2.867
							c-6.523,0.77-13.094,2.137-19.667,2.124c-7.978-0.015-15.918-0.491-23.833-1.457c-5.98-0.73-11.859-1.313-17.749-2.537
							c-4.001-0.831-7.659-2.555-11.629-3.551c-4.839-1.214-17.765-3.507-15.326-10.787"
                    clip-path="url(#l)" opacity=".3"
                    class="svgShape color5da585-61 selectable"></path>
                <path fill="#558c74"
                    d="M88.705 439.526c0 0 .069.015.204.043.136.02.332.092.598.106.524.077 1.305.053 2.294-.017.497-.034 1.048-.072 1.647-.113.61-.033 1.269.04 1.954.085.69.03 1.429.199 2.209.304.763.158 1.57.328 2.398.521 1.683.371 3.445.884 5.342 1.365 1.884.516 3.858 1.152 5.897 1.78 1.017.305 2.052.613 3.099.926.524.153 1.051.309 1.581.464.537.121 1.076.243 1.617.366 1.074.243 2.156.488 3.242.734 1.124.136 2.252.272 3.381.409 2.26.396 4.493.318 6.704.427 1.103.063 2.211-.071 3.298-.097 1.089-.061 2.167-.076 3.224-.174 4.222-.433 8.209-.722 11.601-1.008.857-.065 1.648-.145 2.455-.19.777-.005 1.515-.01 2.208-.014 1.397.076 2.606.147 3.595.229.992.083 1.77.111 2.303.143.532.028.816.043.816.043s-.284.004-.817.011c-.533.001-1.318.039-2.311-.002-.997-.033-2.201-.044-3.574-.052-.691.038-1.427.079-2.203.123-.768.085-1.574.176-2.416.27-3.39.384-7.345.831-11.583 1.311-1.063.109-2.155.136-3.254.209-1.104.036-2.21.183-3.345.13-2.257-.085-4.591.007-6.826-.368-1.127-.148-2.254-.296-3.376-.443-1.12-.264-2.235-.526-3.341-.787-.549-.13-1.095-.26-1.639-.389-.532-.162-1.062-.323-1.589-.483-1.051-.325-2.09-.646-3.111-.963-2.033-.629-3.957-1.335-5.826-1.904-1.874-.537-3.646-1.109-5.282-1.522-1.658-.431-3.143-.816-4.509-1.002-.695-.08-1.324-.182-1.915-.179-.598.012-1.147.022-1.643.032-.997.027-1.786-.015-2.313-.124-.266-.032-.456-.117-.591-.146C88.773 439.545 88.705 439.526 88.705 439.526zM85.538 448.86c0 0 .268-.006.771-.016.502-.013 1.244-.001 2.17-.124.926-.088 2.06-.23 3.373-.31.661.015 1.369-.02 2.113.038.728.082 1.494.168 2.292.257.399.051.807.083 1.222.149.415.082.838.165 1.268.249.858.188 1.759.305 2.663.566 1.762.538 3.63 1.063 5.529 1.74 1.905.678 3.881 1.25 5.886 1.858 1.013.247 2.046.432 3.076.653.51.088 1.045.254 1.536.279l1.6.147c1.065.093 2.135.251 3.191.296 1.052.006 2.1.013 3.139.019 1.039.045 2.075-.066 3.097-.148 1.022-.092 2.036-.141 3.025-.266.989-.146 1.96-.291 2.912-.433.477-.067.948-.134 1.414-.199.446-.076.915-.183 1.363-.272 1.806-.363 3.508-.729 5.128-.967.801-.067 1.569-.132 2.299-.192.739 0 1.441 0 2.1 0 1.316-.004 2.448.07 3.388.091 1.874.053 2.946.082 2.946.082s-1.072.041-2.948.113c-.935.027-2.081.014-3.375.086-.647.033-1.335.069-2.06.106-.727.087-1.492.178-2.29.273-1.548.28-3.246.699-5.037 1.121-.453.105-.891.221-1.373.319-.468.081-.941.163-1.42.246-.959.159-1.939.32-2.936.485-1.001.137-2.03.197-3.066.302-1.038.095-2.085.218-3.159.185-1.07.004-2.149.007-3.232.011-1.075-.036-2.133-.178-3.203-.265l-1.598-.165c-.58-.041-1.074-.209-1.614-.307-1.055-.237-2.116-.44-3.147-.704-2.026-.638-4.033-1.243-5.908-1.934-1.886-.676-3.735-1.279-5.479-1.87-.856-.278-1.737-.422-2.565-.631-.418-.096-.828-.19-1.23-.283-.408-.08-.818-.126-1.214-.188-.795-.117-1.557-.23-2.282-.338-.711-.092-1.398-.094-2.042-.143-1.294.011-2.43.094-3.374.133-.941.081-1.675.003-2.177-.016C85.806 448.874 85.538 448.86 85.538 448.86z"
                    opacity=".5" class="svgShape color558c74-62 selectable"></path>
                <path fill="#558c74" d="M86.205,456.86c0,0,0.24-0.036,0.691-0.105c0.226-0.034,0.504-0.076,0.83-0.126
							c0.329-0.034,0.712-0.039,1.14-0.059c0.43-0.03,0.904-0.018,1.419,0.012c0.516,0.015,1.074,0.044,1.665,0.121
							c1.19,0.104,2.517,0.338,3.95,0.643c1.431,0.286,2.974,0.735,4.588,1.045c1.638,0.333,3.368,0.673,5.149,1.063
							c0.445,0.096,0.895,0.192,1.348,0.289c0.456,0.069,0.914,0.139,1.376,0.208c0.923,0.137,1.857,0.274,2.799,0.414
							c0.941,0.14,1.891,0.28,2.843,0.422c0.908,0.158,1.919,0.178,2.875,0.273c1.944,0.241,3.854,0.191,5.747,0.24
							c1.898-0.059,3.774-0.098,5.587-0.245c3.633-0.281,7.024-0.543,9.93-0.768c1.453-0.133,2.796-0.167,3.981-0.221
							c1.185-0.066,2.221-0.075,3.073-0.065c1.703,0.015,2.676,0.023,2.676,0.023s-0.971,0.063-2.669,0.172
							c-0.849,0.038-1.878,0.106-3.056,0.242c-1.178,0.125-2.506,0.237-3.954,0.409c-1.449,0.166-3.018,0.346-4.678,0.535
							c-1.659,0.204-3.415,0.391-5.239,0.536c-1.82,0.17-3.715,0.232-5.64,0.313c-1.933-0.025-3.921,0.044-5.845-0.178
							c-0.977-0.109-1.918-0.133-2.92-0.313c-0.962-0.154-1.92-0.308-2.87-0.46c-0.95-0.152-1.893-0.304-2.824-0.452
							c-0.465-0.076-0.927-0.151-1.386-0.227c-0.451-0.103-0.9-0.204-1.344-0.305c-1.78-0.395-3.492-0.814-5.118-1.2
							c-1.657-0.382-3.137-0.871-4.557-1.208c-0.705-0.174-1.381-0.338-2.028-0.469c-0.645-0.151-1.26-0.267-1.843-0.354
							c-0.58-0.11-1.127-0.171-1.636-0.215c-0.508-0.059-0.974-0.098-1.396-0.092c-0.422-0.003-0.8-0.023-1.13-0.018
							c-0.33,0.024-0.61,0.046-0.837,0.063C86.447,456.842,86.205,456.86,86.205,456.86z"
                    opacity=".5" class="svgShape color558c74-63 selectable"></path>
                <path fill="#ffffff" d="M69.921,460.968c-0.037,0-0.075-0.004-0.112-0.013c-0.269-0.061-0.437-0.33-0.375-0.599
							l0.202-0.909c0.14-0.642,0.261-1.195,0.37-1.535c0.157-0.487,0.308-0.974,0.457-1.46c0.081-0.263,0.358-0.412,0.625-0.332
							c0.264,0.081,0.413,0.36,0.331,0.625c-0.15,0.49-0.302,0.982-0.46,1.474c-0.095,0.294-0.216,0.852-0.345,1.441l-0.204,0.919
							C70.354,460.812,70.149,460.968,69.921,460.968z M72.138,453.283c-0.053,0-0.108-0.009-0.161-0.026
							c-0.261-0.09-0.401-0.373-0.312-0.635c0.344-1.011,0.683-1.897,1.034-2.705c0.154-0.354,0.308-0.704,0.463-1.052
							c0.113-0.251,0.409-0.364,0.66-0.253c0.252,0.113,0.366,0.408,0.253,0.661c-0.154,0.344-0.306,0.691-0.459,1.042
							c-0.34,0.784-0.67,1.643-1.005,2.629C72.54,453.152,72.346,453.283,72.138,453.283z M75.352,445.965
							c-0.078,0-0.157-0.019-0.231-0.057c-0.245-0.129-0.339-0.431-0.211-0.675c0.638-1.22,1.287-2.344,1.983-3.436l0.462,0.207
							l0.42,0.271l-0.04,0.062c-0.68,1.067-1.314,2.167-1.939,3.36C75.706,445.868,75.532,445.965,75.352,445.965z M79.656,439.233
							c-0.099,0-0.199-0.029-0.287-0.091c-0.226-0.158-0.281-0.471-0.122-0.696c0.708-1.01,1.491-2.197,1.934-3.351
							c0.099-0.258,0.39-0.387,0.646-0.288c0.258,0.099,0.387,0.388,0.288,0.646c-0.481,1.256-1.306,2.508-2.049,3.567
							C79.969,439.159,79.814,439.233,79.656,439.233z"
                    class="svgShape colorffffff-64 selectable"></path>
                <path fill="#ffffff" d="M157.337,468.203c-0.12,0-0.24-0.043-0.336-0.129c-0.205-0.186-0.221-0.502-0.035-0.707
							c0.755-0.834,1.508-1.999,2.172-3.026l0.106-0.164c0.149-0.233,0.459-0.297,0.691-0.148c0.232,0.15,0.298,0.46,0.148,0.691
							l-0.106,0.164c-0.685,1.06-1.461,2.26-2.271,3.155C157.608,468.147,157.473,468.203,157.337,468.203z M162.07,461.753
							c-0.107,0-0.215-0.034-0.306-0.105c-0.218-0.169-0.258-0.483-0.088-0.701c0.419-0.539,0.831-1.085,1.242-1.632
							c0.391-0.519,0.782-1.037,1.179-1.551c0.17-0.22,0.483-0.259,0.702-0.09c0.218,0.169,0.258,0.483,0.089,0.701
							c-0.395,0.511-0.784,1.026-1.172,1.541c-0.415,0.551-0.829,1.101-1.25,1.644C162.367,461.687,162.22,461.753,162.07,461.753z
							 M167.053,455.498c-0.116,0-0.232-0.04-0.327-0.122c-0.209-0.181-0.231-0.496-0.051-0.705c0.874-1.011,1.736-2.02,2.587-3.039
							c0.176-0.211,0.492-0.241,0.704-0.064c0.212,0.177,0.241,0.492,0.063,0.704c-0.855,1.023-1.72,2.038-2.598,3.053
							C167.333,455.439,167.193,455.498,167.053,455.498z M172.168,449.349c-0.108,0-0.218-0.035-0.31-0.107
							c-0.217-0.172-0.253-0.486-0.082-0.702c0.333-0.423,0.665-0.848,0.995-1.276c0.446-0.58,0.93-1.216,1.414-1.891
							c0.162-0.225,0.473-0.276,0.698-0.114c0.224,0.161,0.275,0.474,0.114,0.698c-0.491,0.683-0.982,1.328-1.434,1.916
							c-0.333,0.433-0.667,0.861-1.003,1.286C172.462,449.284,172.316,449.349,172.168,449.349z M176.726,442.784
							c-0.078,0-0.158-0.018-0.232-0.058c-0.244-0.128-0.339-0.43-0.211-0.675c0.7-1.333,1.123-2.541,1.258-3.59
							c0.036-0.272,0.29-0.465,0.56-0.432c0.274,0.035,0.467,0.286,0.432,0.561c-0.153,1.183-0.6,2.467-1.365,3.926
							C177.08,442.686,176.906,442.784,176.726,442.784z"
                    class="svgShape colorffffff-65 selectable"></path>
                <path fill="#ffffff"
                    d="M324.819 468.253c-8.641 0-14.405-1.906-17.207-5.706-3.404-4.619-1.145-10.104-.701-11.071 2.27-6.543 10.851-11.105 25.511-13.564 10.562-1.772 20.365-1.793 20.778-1.793v4c-10.646.004-39.043 2.302-42.535 12.743l-.106.257c-.016.031-1.94 4.083.29 7.077 1.814 2.436 7.865 6.029 28.003 2.749l.644 3.947C333.926 467.799 329.03 468.253 324.819 468.253zM465.628 477.797c-6.744 0-17.4-.103-25.601-.668-13.061-.898-20.125-2.935-20.42-3.022l1.124-3.839c.068.021 6.995 2.006 19.569 2.871 12.233.841 30.068.645 31.697.625 6.086-.83 10.385-3.065 12.776-6.645 3.517-5.262 1.844-11.746 1.826-11.811-.967-3.367-14.56-8.779-41.722-10.154l.203-3.994c7.053.356 42.385 2.665 45.374 13.081.1.373 2.154 8.351-2.355 15.101-3.074 4.602-8.354 7.429-15.693 8.403l-.235.018C472.103 477.763 469.515 477.797 465.628 477.797z"
                    class="svgShape colorffffff-66 selectable"></path>
                <defs>
                    <path id="m" d="M337.965,454.304c4.09-8.315,7.992-16.814,13.793-17.886c15.878-3.853,24.09,2.378,48.705,3.455
								c24.617,1.076,39.669-2.952,49.76,0.854c3.712,1.399-12.411,20.732-12.411,20.732s-8.711,14.102-16.274,15.431
								c-15.401,2.707-44.524-0.738-44.524-0.738s-35.376-3.866-41.617-6.47C331.811,467.249,333.874,462.62,337.965,454.304z"
                        class="selectable"></path>
                </defs>
                <use fill="#5da585" overflow="visible" xlink:href="#m"
                    class="svgShape color5da585-69 selectable"></use>
                <clipPath id="n">
                    <use overflow="visible" xlink:href="#m" fill="#000000"
                        class="svgShape color000000-71 selectable"></use>
                </clipPath>
                <path fill="#5da585" d="
							M331.129,465.471c3.525,0.867,7.196,1.444,10.797,2.163c2.094,0.417,4.035,1.129,6.175,1.336
							c2.284,0.223,4.574,0.116,6.862,0.334c7.777,0.738,15.318,1.181,23.009,2.541c6.263,1.108,12.839,0.98,19.157,1.617
							c5.94,0.598,11.44-0.183,17.309-0.982c3.287-0.448,6.264-1.72,9.359-2.838c2.705-0.977,5.943-3.188,8.967-2.674
							c2.679,0.455,3.025,4.573,1.592,6.374c-1.566,1.968-4.639,3.597-6.73,4.97c-2.615,1.72-4.674,2.499-7.791,2.867
							c-6.523,0.771-13.095,2.137-19.668,2.124c-7.977-0.015-15.918-0.491-23.832-1.457c-5.98-0.73-11.859-1.313-17.75-2.537
							c-4-0.831-7.658-2.555-11.629-3.551c-4.839-1.214-17.765-3.507-15.326-10.787"
                    clip-path="url(#n)" opacity=".3"
                    class="svgShape color5da585-72 selectable"></path>
                <path fill="#558c74"
                    d="M357.129 443.304c0 0 .07.015.205.043.136.02.332.092.598.106.524.077 1.305.053 2.294-.017.497-.034 1.048-.072 1.647-.113.61-.033 1.27.04 1.953.085.691.03 1.43.199 2.209.304.764.158 1.57.328 2.398.521 1.683.371 3.445.884 5.342 1.365 1.885.516 3.858 1.152 5.897 1.78 1.017.305 2.052.613 3.099.926.523.153 1.051.309 1.58.464.537.121 1.076.243 1.617.366 1.074.243 2.156.488 3.242.734 1.124.136 2.252.272 3.381.409 2.26.395 4.492.318 6.704.427 1.103.064 2.211-.071 3.298-.097 1.09-.061 2.167-.076 3.225-.174 4.222-.433 8.209-.722 11.601-1.008.857-.066 1.648-.145 2.454-.191.777-.005 1.515-.01 2.208-.014 1.396.076 2.605.147 3.595.229.992.083 1.771.111 2.304.143.531.028.816.043.816.043s-.285.004-.817.011c-.532.001-1.317.039-2.311-.002-.996-.033-2.201-.044-3.574-.052-.691.038-1.427.079-2.203.123-.768.085-1.574.176-2.416.27-3.39.384-7.345.831-11.582 1.311-1.064.109-2.155.136-3.255.209-1.103.036-2.21.183-3.345.13-2.257-.085-4.591.007-6.826-.368-1.127-.148-2.254-.296-3.377-.443-1.119-.264-2.234-.526-3.341-.787-.549-.13-1.095-.26-1.64-.389-.531-.162-1.061-.323-1.588-.483-1.052-.325-2.09-.647-3.111-.963-2.033-.629-3.957-1.335-5.826-1.904-1.875-.537-3.646-1.109-5.282-1.521-1.657-.431-3.144-.816-4.509-1.002-.695-.08-1.324-.182-1.916-.179-.598.012-1.147.022-1.643.032-.996.027-1.786-.015-2.314-.124-.267-.032-.456-.117-.591-.146C357.198 443.324 357.129 443.304 357.129 443.304zM353.963 452.638c0 0 .268-.006.771-.016.502-.013 1.243-.001 2.171-.124.926-.088 2.059-.229 3.373-.31.66.015 1.368-.02 2.113.038.727.082 1.493.168 2.292.257.4.051.808.083 1.222.149.416.082.838.165 1.268.249.858.188 1.76.305 2.663.566 1.762.538 3.63 1.063 5.529 1.74 1.905.678 3.882 1.25 5.886 1.858 1.014.247 2.046.432 3.076.653.51.088 1.045.254 1.535.279l1.6.147c1.065.093 2.136.251 3.191.296 1.052.006 2.1.013 3.139.018 1.039.045 2.075-.066 3.098-.148 1.021-.092 2.035-.141 3.025-.266.988-.146 1.961-.291 2.912-.433.477-.067.947-.134 1.414-.199.445-.076.915-.183 1.362-.271 1.806-.363 3.509-.73 5.128-.967.801-.067 1.568-.132 2.299-.192.739 0 1.44 0 2.1 0 1.316-.004 2.448.07 3.389.091 1.874.053 2.945.082 2.945.082s-1.072.041-2.947.113c-.936.027-2.082.014-3.376.086-.647.033-1.335.069-2.06.107-.728.087-1.492.178-2.291.273-1.548.28-3.245.699-5.036 1.121-.452.104-.892.221-1.372.319-.469.081-.941.163-1.42.246-.96.159-1.939.32-2.936.485-1.002.137-2.031.197-3.066.302-1.038.095-2.086.218-3.159.185-1.07.004-2.149.007-3.231.011-1.076-.036-2.134-.178-3.203-.265l-1.599-.165c-.581-.041-1.074-.209-1.614-.307-1.055-.237-2.115-.44-3.147-.704-2.026-.638-4.033-1.243-5.908-1.934-1.886-.676-3.735-1.279-5.48-1.87-.855-.278-1.737-.422-2.565-.631-.417-.096-.827-.19-1.23-.283-.407-.08-.817-.126-1.214-.188-.795-.117-1.557-.23-2.281-.338-.712-.092-1.398-.094-2.042-.143-1.294.011-2.431.094-3.374.133-.941.081-1.676.003-2.178-.016C354.231 452.652 353.963 452.638 353.963 452.638z"
                    opacity=".5" class="svgShape color558c74-73 selectable"></path>
                <path fill="#558c74" d="M354.629,460.638c0,0,0.24-0.036,0.691-0.105c0.227-0.034,0.504-0.076,0.83-0.126
							c0.329-0.034,0.713-0.039,1.141-0.059c0.43-0.03,0.904-0.019,1.418,0.012c0.517,0.015,1.074,0.044,1.666,0.121
							c1.19,0.104,2.517,0.338,3.949,0.644c1.432,0.286,2.975,0.735,4.588,1.045c1.639,0.333,3.368,0.673,5.148,1.063
							c0.445,0.096,0.896,0.192,1.348,0.289c0.456,0.069,0.914,0.139,1.377,0.208c0.923,0.137,1.857,0.274,2.799,0.414
							c0.941,0.14,1.891,0.28,2.844,0.422c0.907,0.158,1.918,0.178,2.875,0.273c1.943,0.241,3.854,0.191,5.746,0.24
							c1.898-0.059,3.775-0.098,5.587-0.245c3.633-0.281,7.024-0.543,9.931-0.768c1.453-0.133,2.795-0.167,3.98-0.221
							c1.186-0.066,2.221-0.075,3.073-0.064c1.703,0.015,2.677,0.022,2.677,0.022s-0.971,0.063-2.67,0.172
							c-0.85,0.038-1.878,0.106-3.056,0.242c-1.178,0.125-2.506,0.237-3.954,0.409c-1.449,0.166-3.018,0.346-4.678,0.535
							c-1.659,0.204-3.416,0.391-5.239,0.536c-1.82,0.17-3.715,0.232-5.64,0.313c-1.934-0.025-3.921,0.044-5.846-0.178
							c-0.977-0.109-1.918-0.133-2.919-0.313c-0.962-0.154-1.92-0.308-2.87-0.46c-0.95-0.152-1.893-0.304-2.824-0.452
							c-0.465-0.076-0.927-0.151-1.386-0.227c-0.451-0.103-0.899-0.204-1.345-0.305c-1.779-0.395-3.492-0.813-5.117-1.2
							c-1.656-0.382-3.137-0.871-4.557-1.208c-0.705-0.174-1.381-0.338-2.028-0.469c-0.645-0.151-1.261-0.267-1.843-0.353
							c-0.58-0.11-1.127-0.171-1.636-0.215c-0.508-0.059-0.974-0.098-1.396-0.092c-0.422-0.003-0.8-0.022-1.131-0.018
							c-0.329,0.024-0.609,0.046-0.837,0.063C354.873,460.621,354.629,460.638,354.629,460.638z"
                    opacity=".5" class="svgShape color558c74-74 selectable"></path>
                <path fill="#ffffff" d="M338.346,464.747c-0.037,0-0.074-0.004-0.112-0.013c-0.268-0.061-0.436-0.33-0.376-0.599
							l0.202-0.909c0.14-0.642,0.261-1.195,0.37-1.535c0.157-0.487,0.308-0.974,0.457-1.46c0.08-0.263,0.358-0.412,0.624-0.332
							c0.264,0.081,0.413,0.36,0.331,0.625c-0.149,0.49-0.302,0.982-0.46,1.474c-0.095,0.294-0.216,0.852-0.345,1.441l-0.205,0.919
							C338.78,464.59,338.575,464.747,338.346,464.747z M340.563,457.061c-0.053,0-0.107-0.009-0.161-0.026
							c-0.261-0.09-0.401-0.373-0.311-0.635c0.344-1.011,0.682-1.897,1.033-2.705c0.154-0.354,0.309-0.704,0.463-1.052
							c0.113-0.251,0.41-0.364,0.66-0.253c0.253,0.113,0.366,0.408,0.254,0.661c-0.154,0.344-0.307,0.691-0.459,1.042
							c-0.341,0.784-0.67,1.643-1.006,2.629C340.965,456.93,340.771,457.061,340.563,457.061z M343.777,449.744
							c-0.078,0-0.157-0.019-0.232-0.057c-0.244-0.129-0.339-0.431-0.211-0.675c0.639-1.22,1.287-2.344,1.982-3.436l0.462,0.207
							l0.421,0.27l-0.04,0.062c-0.68,1.067-1.314,2.167-1.939,3.36C344.131,449.646,343.958,449.744,343.777,449.744z
							 M348.082,443.011c-0.099,0-0.199-0.029-0.286-0.091c-0.226-0.158-0.281-0.471-0.123-0.696c0.709-1.01,1.492-2.197,1.934-3.35
							c0.1-0.258,0.391-0.387,0.647-0.288c0.258,0.099,0.387,0.388,0.287,0.645c-0.48,1.256-1.305,2.508-2.049,3.567
							C348.394,442.937,348.239,443.011,348.082,443.011z"
                    class="svgShape colorffffff-75 selectable"></path>
                <path fill="#ffffff" d="M425.762,471.981c-0.12,0-0.24-0.043-0.336-0.129c-0.205-0.186-0.221-0.502-0.035-0.707
							c0.756-0.834,1.508-1.999,2.172-3.026l0.105-0.164c0.15-0.233,0.459-0.297,0.691-0.148c0.232,0.15,0.299,0.46,0.148,0.691
							l-0.105,0.164c-0.685,1.06-1.461,2.26-2.271,3.155C426.034,471.925,425.898,471.981,425.762,471.981z M430.496,465.532
							c-0.106,0-0.215-0.034-0.306-0.105c-0.219-0.169-0.258-0.483-0.089-0.701c0.419-0.539,0.831-1.085,1.242-1.632
							c0.391-0.519,0.782-1.037,1.179-1.551c0.17-0.22,0.483-0.259,0.702-0.09c0.218,0.169,0.259,0.483,0.089,0.701
							c-0.395,0.511-0.783,1.026-1.172,1.541c-0.414,0.551-0.828,1.101-1.25,1.644C430.792,465.465,430.645,465.532,430.496,465.532
							z M435.479,459.276c-0.117,0-0.232-0.04-0.328-0.122c-0.209-0.181-0.231-0.496-0.051-0.705
							c0.875-1.011,1.736-2.02,2.587-3.039c0.176-0.211,0.492-0.241,0.704-0.064c0.212,0.177,0.24,0.492,0.063,0.704
							c-0.854,1.023-1.72,2.038-2.599,3.053C435.758,459.217,435.619,459.276,435.479,459.276z M440.594,453.128
							c-0.109,0-0.219-0.035-0.311-0.108c-0.217-0.172-0.253-0.486-0.082-0.702c0.334-0.423,0.666-0.848,0.995-1.276
							c0.446-0.58,0.93-1.216,1.414-1.891c0.162-0.225,0.474-0.276,0.698-0.114c0.225,0.161,0.275,0.474,0.114,0.698
							c-0.491,0.683-0.982,1.328-1.434,1.916c-0.333,0.433-0.667,0.861-1.003,1.286
							C440.887,453.062,440.742,453.128,440.594,453.128z M445.151,446.562c-0.078,0-0.157-0.019-0.231-0.058
							c-0.244-0.128-0.339-0.43-0.21-0.675c0.699-1.333,1.123-2.541,1.258-3.59c0.035-0.273,0.289-0.465,0.561-0.432
							c0.273,0.035,0.467,0.286,0.432,0.561c-0.153,1.183-0.6,2.467-1.365,3.926C445.505,446.464,445.332,446.562,445.151,446.562z"
                    class="svgShape colorffffff-76 selectable"></path>
                <g>
                    <path fill="#ffffff"
                        d="M290.305 476.132c-8.641 0-14.405-1.906-17.207-5.706-3.404-4.619-1.145-10.104-.701-11.071 2.27-6.543 10.852-11.105 25.511-13.564 10.561-1.771 20.365-1.793 20.778-1.793v4c-10.647.004-39.043 2.302-42.535 12.743l-.106.257c-.016.031-1.94 4.083.29 7.077 1.814 2.436 7.865 6.029 28.003 2.749l.644 3.947C299.413 475.679 294.516 476.132 290.305 476.132zM431.115 485.677c-6.744 0-17.399-.104-25.601-.668-13.061-.898-20.125-2.936-20.42-3.023l1.124-3.839c.068.02 6.995 2.006 19.569 2.871 12.233.841 30.068.645 31.697.625 6.086-.83 10.385-3.065 12.776-6.646 3.517-5.262 1.844-11.746 1.826-11.811-.967-3.367-14.56-8.779-41.722-10.154l.203-3.994c7.053.356 42.385 2.665 45.374 13.081.1.373 2.154 8.351-2.355 15.101-3.074 4.602-8.354 7.429-15.693 8.403l-.235.018C437.589 485.643 435.001 485.677 431.115 485.677z"
                        class="svgShape colorffffff-78 selectable"></path>
                    <defs>
                        <path id="o" d="M303.452,462.184c4.09-8.315,7.992-16.814,13.793-17.886c15.878-3.853,24.09,2.378,48.705,3.455
								c24.617,1.076,39.669-2.952,49.76,0.854c3.712,1.399-12.411,20.732-12.411,20.732s-8.711,14.102-16.274,15.431
								c-15.401,2.707-44.525-0.738-44.525-0.738s-35.376-3.866-41.617-6.47C297.297,475.128,299.36,470.5,303.452,462.184z"
                            class="selectable"></path>
                    </defs>
                    <use fill="#ccede7" overflow="visible" xlink:href="#o"
                        class="svgShape colorccede7-81 selectable"></use>
                    <clipPath id="p">
                        <use overflow="visible" xlink:href="#o" fill="#000000"
                            class="svgShape color000000-83 selectable"></use>
                    </clipPath>
                    <path fill="#ccede7" d="
							M296.616,473.351c3.525,0.867,7.196,1.444,10.797,2.163c2.094,0.417,4.035,1.129,6.175,1.336
							c2.284,0.223,4.574,0.116,6.862,0.334c7.777,0.738,15.318,1.181,23.009,2.541c6.263,1.108,12.839,0.98,19.157,1.617
							c5.939,0.598,11.439-0.183,17.309-0.982c3.287-0.448,6.264-1.72,9.359-2.838c2.705-0.978,5.943-3.188,8.967-2.674
							c2.679,0.455,3.025,4.573,1.592,6.374c-1.566,1.968-4.639,3.597-6.73,4.97c-2.615,1.72-4.674,2.499-7.791,2.867
							c-6.523,0.77-13.095,2.137-19.668,2.124c-7.977-0.015-15.918-0.491-23.832-1.457c-5.98-0.73-11.859-1.313-17.75-2.537
							c-4-0.831-7.658-2.555-11.629-3.551c-4.839-1.214-17.765-3.507-15.326-10.787"
                        clip-path="url(#p)" opacity=".3"
                        class="svgShape colorccede7-84 selectable"></path>
                    <path fill="#5da585"
                        d="M322.616 451.184c0 0 .07.015.205.043.136.02.332.092.598.106.524.077 1.305.053 2.294-.017.497-.034 1.048-.072 1.647-.113.61-.033 1.27.04 1.953.085.691.03 1.43.199 2.209.304.764.158 1.57.328 2.398.522 1.683.371 3.445.884 5.342 1.365 1.885.516 3.858 1.152 5.898 1.78 1.017.305 2.052.613 3.099.926.523.153 1.051.309 1.58.464.537.121 1.076.243 1.617.366 1.074.243 2.156.488 3.242.734 1.124.136 2.252.272 3.381.409 2.26.396 4.492.318 6.704.427 1.103.063 2.211-.071 3.298-.097 1.09-.061 2.167-.076 3.225-.174 4.222-.433 8.209-.722 11.602-1.008.856-.065 1.647-.145 2.454-.19.777-.005 1.515-.01 2.208-.014 1.396.076 2.605.147 3.595.229.992.083 1.771.111 2.304.143.531.028.816.043.816.043s-.285.004-.817.011c-.532.001-1.317.039-2.311-.002-.996-.033-2.201-.044-3.574-.052-.691.038-1.427.079-2.203.123-.768.085-1.574.176-2.416.27-3.39.384-7.345.831-11.582 1.311-1.063.109-2.155.136-3.255.209-1.103.036-2.21.183-3.345.13-2.257-.085-4.591.007-6.826-.368-1.127-.148-2.254-.296-3.377-.443-1.119-.264-2.234-.526-3.341-.787-.549-.13-1.095-.26-1.64-.389-.531-.162-1.061-.323-1.588-.483-1.052-.325-2.09-.646-3.111-.963-2.033-.629-3.957-1.335-5.826-1.904-1.875-.537-3.646-1.109-5.282-1.522-1.657-.431-3.144-.816-4.509-1.002-.695-.08-1.324-.182-1.916-.179-.598.012-1.147.022-1.643.032-.996.027-1.786-.015-2.313-.124-.267-.032-.456-.117-.591-.146C322.684 451.204 322.616 451.184 322.616 451.184zM319.45 460.518c0 0 .268-.006.771-.016.502-.013 1.243-.001 2.171-.124.926-.088 2.058-.229 3.373-.309.66.015 1.368-.02 2.113.038.727.082 1.493.168 2.292.257.399.051.808.083 1.222.149.416.082.838.165 1.267.249.858.188 1.76.305 2.663.566 1.762.538 3.63 1.063 5.529 1.74 1.905.678 3.882 1.25 5.886 1.858 1.014.247 2.046.432 3.076.653.51.088 1.045.254 1.535.279l1.6.147c1.065.093 2.136.251 3.191.296 1.052.006 2.1.013 3.139.019 1.039.045 2.075-.066 3.098-.148 1.022-.092 2.035-.141 3.025-.266.988-.146 1.961-.291 2.912-.433.477-.067.947-.134 1.414-.199.445-.076.915-.183 1.362-.272 1.806-.363 3.509-.729 5.128-.967.801-.067 1.568-.132 2.299-.192.739 0 1.44 0 2.1 0 1.316-.004 2.448.07 3.389.091 1.874.053 2.945.082 2.945.082s-1.072.041-2.947.113c-.936.027-2.082.014-3.376.086-.647.033-1.335.069-2.06.107-.728.087-1.492.178-2.291.273-1.548.28-3.245.699-5.036 1.121-.452.105-.892.221-1.372.319-.469.081-.941.163-1.42.246-.96.159-1.939.32-2.936.485-1.002.137-2.031.197-3.066.302-1.038.095-2.086.218-3.159.185-1.07.004-2.15.007-3.232.011-1.076-.036-2.134-.178-3.203-.265l-1.599-.165c-.581-.041-1.074-.209-1.614-.307-1.055-.237-2.115-.44-3.147-.704-2.026-.638-4.033-1.243-5.908-1.934-1.886-.676-3.735-1.279-5.479-1.87-.855-.278-1.737-.422-2.565-.631-.417-.096-.827-.19-1.23-.283-.407-.08-.817-.126-1.214-.188-.795-.117-1.557-.23-2.281-.338-.712-.092-1.398-.094-2.042-.143-1.294.011-2.431.094-3.374.133-.941.081-1.676.003-2.178-.016C319.717 460.532 319.45 460.518 319.45 460.518z"
                        opacity=".5" class="svgShape color5da585-85 selectable"></path>
                    <path fill="#5da585" d="M320.116,468.518c0,0,0.24-0.036,0.691-0.105c0.227-0.034,0.504-0.076,0.83-0.126
							c0.329-0.034,0.713-0.039,1.141-0.059c0.43-0.03,0.904-0.019,1.418,0.012c0.517,0.015,1.074,0.044,1.666,0.121
							c1.189,0.103,2.517,0.338,3.949,0.643c1.432,0.286,2.975,0.735,4.588,1.045c1.639,0.333,3.368,0.673,5.148,1.064
							c0.445,0.096,0.896,0.192,1.348,0.289c0.456,0.069,0.914,0.139,1.377,0.208c0.923,0.137,1.857,0.274,2.799,0.414
							c0.941,0.14,1.891,0.28,2.844,0.422c0.907,0.158,1.918,0.178,2.875,0.273c1.943,0.241,3.854,0.191,5.746,0.24
							c1.898-0.059,3.775-0.098,5.587-0.245c3.633-0.281,7.024-0.543,9.931-0.768c1.453-0.133,2.795-0.167,3.98-0.221
							c1.186-0.066,2.221-0.075,3.073-0.065c1.703,0.015,2.677,0.023,2.677,0.023s-0.971,0.063-2.67,0.172
							c-0.85,0.038-1.878,0.106-3.056,0.242c-1.178,0.125-2.506,0.237-3.954,0.409c-1.449,0.166-3.018,0.346-4.678,0.535
							c-1.659,0.204-3.416,0.391-5.239,0.536c-1.82,0.17-3.715,0.232-5.64,0.313c-1.934-0.025-3.921,0.044-5.846-0.178
							c-0.977-0.109-1.918-0.133-2.919-0.313c-0.962-0.154-1.92-0.308-2.87-0.46c-0.95-0.152-1.893-0.304-2.824-0.452
							c-0.465-0.076-0.927-0.151-1.386-0.227c-0.451-0.103-0.899-0.204-1.345-0.305c-1.779-0.395-3.492-0.814-5.117-1.2
							c-1.656-0.382-3.137-0.871-4.557-1.208c-0.705-0.174-1.381-0.338-2.028-0.469c-0.645-0.151-1.261-0.267-1.843-0.354
							c-0.58-0.11-1.127-0.171-1.636-0.215c-0.508-0.059-0.974-0.098-1.395-0.092c-0.422-0.003-0.8-0.022-1.131-0.018
							c-0.329,0.024-0.609,0.046-0.837,0.063C320.359,468.5,320.116,468.518,320.116,468.518z"
                        opacity=".5" class="svgShape color5da585-86 selectable"></path>
                    <path fill="#ffffff" d="M303.833,472.626c-0.037,0-0.074-0.004-0.112-0.013c-0.269-0.061-0.437-0.33-0.376-0.599
							l0.202-0.909c0.14-0.642,0.261-1.195,0.37-1.535c0.157-0.487,0.308-0.974,0.457-1.46c0.08-0.263,0.357-0.412,0.624-0.332
							c0.264,0.081,0.413,0.36,0.331,0.625c-0.15,0.49-0.302,0.982-0.46,1.474c-0.095,0.294-0.216,0.852-0.345,1.441l-0.205,0.919
							C304.266,472.47,304.061,472.626,303.833,472.626z M306.049,464.941c-0.053,0-0.107-0.009-0.161-0.026
							c-0.261-0.09-0.401-0.373-0.311-0.635c0.344-1.011,0.682-1.896,1.033-2.705c0.154-0.354,0.309-0.704,0.463-1.052
							c0.113-0.251,0.41-0.364,0.66-0.253c0.253,0.113,0.366,0.408,0.254,0.661c-0.154,0.344-0.307,0.691-0.459,1.042
							c-0.341,0.784-0.67,1.643-1.006,2.629C306.452,464.81,306.257,464.941,306.049,464.941z M309.263,457.624
							c-0.078,0-0.157-0.019-0.231-0.057c-0.244-0.129-0.339-0.431-0.211-0.675c0.639-1.22,1.287-2.344,1.982-3.436l0.462,0.207
							l0.421,0.271l-0.04,0.062c-0.68,1.067-1.314,2.167-1.939,3.36C309.618,457.526,309.444,457.624,309.263,457.624z
							 M313.568,450.891c-0.099,0-0.199-0.029-0.286-0.091c-0.227-0.158-0.281-0.471-0.123-0.696
							c0.709-1.01,1.492-2.197,1.934-3.351c0.1-0.258,0.391-0.387,0.647-0.288c0.258,0.099,0.387,0.388,0.287,0.646
							c-0.481,1.256-1.305,2.508-2.049,3.567C313.88,450.817,313.725,450.891,313.568,450.891z"
                        class="svgShape colorffffff-87 selectable"></path>
                    <path fill="#ffffff" d="M391.249,479.861c-0.12,0-0.24-0.043-0.336-0.129c-0.205-0.186-0.221-0.502-0.035-0.707
							c0.756-0.834,1.508-1.999,2.172-3.026l0.105-0.164c0.15-0.233,0.459-0.297,0.691-0.148c0.232,0.15,0.299,0.46,0.148,0.691
							l-0.105,0.164c-0.685,1.06-1.461,2.26-2.271,3.155C391.52,479.805,391.384,479.861,391.249,479.861z M395.982,473.412
							c-0.107,0-0.215-0.034-0.306-0.105c-0.219-0.169-0.258-0.483-0.089-0.701c0.419-0.539,0.831-1.085,1.242-1.632
							c0.391-0.519,0.782-1.037,1.179-1.551c0.17-0.22,0.483-0.259,0.702-0.09c0.218,0.169,0.259,0.483,0.089,0.701
							c-0.395,0.511-0.783,1.026-1.172,1.541c-0.414,0.551-0.828,1.101-1.25,1.644C396.279,473.345,396.131,473.412,395.982,473.412
							z M400.965,467.156c-0.117,0-0.232-0.04-0.328-0.122c-0.209-0.181-0.23-0.496-0.051-0.705c0.875-1.011,1.736-2.02,2.587-3.039
							c0.176-0.211,0.492-0.241,0.704-0.064c0.212,0.177,0.24,0.492,0.063,0.704c-0.854,1.023-1.72,2.038-2.599,3.053
							C401.245,467.097,401.105,467.156,400.965,467.156z M406.081,461.007c-0.109,0-0.219-0.035-0.311-0.107
							c-0.217-0.172-0.253-0.486-0.082-0.702c0.334-0.423,0.666-0.848,0.995-1.276c0.446-0.58,0.93-1.216,1.414-1.891
							c0.162-0.225,0.474-0.276,0.698-0.114c0.225,0.161,0.275,0.474,0.114,0.698c-0.491,0.683-0.981,1.328-1.434,1.916
							c-0.333,0.433-0.667,0.861-1.003,1.286C406.374,460.942,406.228,461.007,406.081,461.007z M410.637,454.442
							c-0.078,0-0.157-0.018-0.231-0.058c-0.244-0.128-0.339-0.43-0.21-0.675c0.699-1.333,1.123-2.541,1.258-3.59
							c0.035-0.272,0.289-0.465,0.561-0.432c0.273,0.035,0.467,0.286,0.432,0.561c-0.153,1.183-0.6,2.467-1.365,3.926
							C410.992,454.344,410.818,454.442,410.637,454.442z"
                        class="svgShape colorffffff-88 selectable"></path>
                </g>
                <g>
                    <polygon fill="#cf8fd8"
                        points="174.037 418.624 454.308 371.875 454.308 379.55 420.017 426.298 174.037 426.298"
                        class="svgShape colorcf8fd8-90 selectable"></polygon>
                    <polygon fill="#844e8c"
                        points="221.913 371.875 454.308 371.875 420.017 418.624 174.037 418.624"
                        class="svgShape color844e8c-91 selectable"></polygon>
                    <path fill="#cf8fd8"
                        d="M409.061 410.923c0-1.104 2.17-1.997 4.846-1.997 2.675 0 4.847.893 4.847 1.997 0 1.102-2.172 1.995-4.847 1.995C411.231 412.918 409.061 412.025 409.061 410.923zM187.13 413.326c0-1.102 2.17-1.997 4.846-1.997 2.677 0 4.847.895 4.847 1.997 0 1.103-2.17 1.997-4.847 1.997C189.3 415.323 187.13 414.429 187.13 413.326zM434.149 378.163c0-1.104 2.17-1.998 4.847-1.998 2.678 0 4.845.893 4.845 1.998 0 1.101-2.167 1.994-4.845 1.994C436.319 380.157 434.149 379.263 434.149 378.163z"
                        class="svgShape colorcf8fd8-92 selectable"></path>
                    <path fill="#ffffff"
                        d="M126.816 419.685c-10.761.001-13.479-6.811-13.61-7.157-.843-2.474-.675-4.776.482-6.891 2.914-5.322 11.235-7.422 11.588-7.509.052-.013.105-.022.159-.029 6.468-.866 26.434-6.832 26.635-6.892.794-.238 1.629.213 1.867 1.006.238.794-.213 1.63-1.007 1.867-.826.248-20.221 6.043-27.007 6.979-.759.201-7.452 2.076-9.607 6.022-.745 1.363-.839 2.814-.288 4.432.105.256 3.253 7.656 17.663 4.306.286-.078 8.238-2.23 12.741-2.149.58-.063 5.511-.701 9.444-4.444.6-.571 1.549-.547 2.121.053.571.601.547 1.55-.053 2.121-4.964 4.723-11.079 5.247-11.336 5.267-.048.004-.094.007-.146.005-4.087-.105-11.961 2.036-12.04 2.058C131.526 419.404 129.004 419.685 126.816 419.685zM243.751 407.064c-1.782 0-3.725-.13-5.848-.421-.053-.008-.106-.018-.159-.031-.169-.042-16.909-4.214-22.206-4.001-.82.047-1.524-.614-1.556-1.442-.031-.828.615-1.524 1.442-1.556 5.589-.227 21.534 3.713 22.966 4.068 16.435 2.227 20.531-5.961 21.024-7.123.444-3.824-6.88-6.548-9.516-7.207-.08-.02-.157-.046-.232-.078-4.035-1.747-22.739-2.395-29.605-2.497-.828-.013-1.49-.694-1.478-1.523.013-.828.703-1.443 1.523-1.477 2.569.038 25.115.438 30.636 2.695 1.37.36 12.794 3.591 11.612 10.72-.014.087-.036.172-.065.255C262.135 397.882 258.695 407.064 243.751 407.064z"
                        class="svgShape colorffffff-93 selectable"></path>
                    <defs>
                        <path id="q" d="M149.668,394.026l6.417,17.845c0,0,0.45,3.042,9.754,0.549c0,0,31.851-7.492,44.979-8.49
								c0,0,8.734,1.096,10.594-4.503l3.035-15.16c0,0,1.814-3.574-4.997-4.98c0,0-39.194-4.998-62.477,8.637
								C156.975,387.922,148.122,391.06,149.668,394.026z"
                            class="selectable"></path>
                    </defs>
                    <use fill="#0d47a1" overflow="visible" xlink:href="#q"
                        class="svgShape color5da585-96 selectable"></use>
                    <clipPath id="r">
                        <use overflow="visible" xlink:href="#q" fill="#000000"
                            class="svgShape color000000-98 selectable"></use>
                    </clipPath>
                    <path fill="#5da585" d="
							M152.11,406.305c3.665,2.356,5.865,3,10.199,3c2.859,0,5.51-0.241,8.288-0.736c5.586-0.995,11.296-2.514,16.757-3.945
							c6.494-1.702,12.546-2.568,19.311-2.568c2.49,0,4.823-0.084,7.195-0.444c1.911-0.29,8.76-2.552,10.262-1.573
							c2.482,1.616-1.463,4.94-2.802,5.529c-4.896,2.154-11.428,2.866-16.662,4.043c-10.335,2.324-20.669,4.927-30.872,7.763
							c-5.198,1.445-12.288,1.955-15.912-2.567c-1.128-1.408-2.07-2.653-2.826-4.25c-0.656-1.385-0.834-3.278-1.938-4.25"
                        clip-path="url(#r)" opacity=".3"
                        class="svgShape color5da585-99 selectable"></path>
                    <path fill="#558c74"
                        d="M161.61 394.555c0 0 .198-.026.569-.075.378-.022.899-.196 1.55-.412.648-.245 1.415-.591 2.265-1.058.857-.451 1.79-1.024 2.89-1.546 1.1-.519 2.281-1.022 3.536-1.587 1.265-.536 2.549-1.196 3.976-1.688 1.413-.521 2.872-1.058 4.356-1.604l1.117-.411 1.173-.31c.77-.199 1.542-.398 2.314-.599.801-.128 1.601-.256 2.398-.384.798-.135 1.592-.251 2.378-.31 1.573-.164 3.122-.306 4.622-.365.734-.027 1.51-.117 2.225-.079.718.006 1.424.02 2.127.102 1.402.106 2.677.331 3.863.524 1.179.204 2.259.391 3.217.557.956.172 1.795.261 2.487.341.692.082 1.24.086 1.613.117.374.023.574.035.574.035s-.199.007-.573.02c-.374-.001-.927.063-1.626.022-.7-.031-1.553-.061-2.522-.166-.975-.077-2.064-.224-3.251-.369-1.182-.142-2.476-.309-3.814-.353-.664-.051-1.367-.035-2.089-.01-.726.004-1.417.079-2.176.125-1.49.08-3.018.242-4.568.426-.781.069-1.551.195-2.319.336-.771.133-1.545.266-2.319.398-.775.189-1.55.378-2.323.566l-1.132.28-1.107.39c-1.473.52-2.922 1.029-4.325 1.523-1.406.479-2.737 1.072-4.018 1.555-1.27.507-2.496.97-3.583 1.426-1.08.47-2.061.976-2.956 1.368-.888.408-1.693.707-2.368.909-.683.182-1.233.291-1.605.281C161.81 394.547 161.61 394.555 161.61 394.555zM167.61 399.055c0 0 .155-.03.447-.087.289-.061.73-.112 1.236-.323.52-.156 1.121-.443 1.808-.779.67-.374 1.426-.796 2.252-1.256.823-.47 1.726-.975 2.723-1.46 1.038-.466 2.156-.787 3.284-1.116 1.145-.318 2.291-.736 3.538-.96 1.24-.258 2.457-.544 3.755-.785 1.257-.138 2.514-.276 3.751-.413 1.23-.175 2.476-.162 3.665-.226 2.374-.071 4.589-.139 6.488-.196.95-.012 1.813-.067 2.577-.135.767-.059 1.436-.109 1.987-.151 1.107-.071 1.74-.112 1.74-.112s-.623.111-1.712.306c-.548.091-1.213.201-1.976.328-.383.064-.79.132-1.219.202-.43.059-.885.08-1.358.124-1.893.149-4.112.359-6.454.513-1.176.088-2.386.13-3.623.307-1.236.147-2.492.297-3.748.446-1.188.213-2.44.491-3.638.729-1.209.21-2.391.579-3.537.871-1.154.314-2.261.559-3.231.936-.982.414-1.9.862-2.748 1.288-.843.435-1.645.794-2.359 1.097-.728.279-1.363.517-1.92.632-.539.175-.977.157-1.273.189C167.768 399.043 167.61 399.055 167.61 399.055zM170.61 405.305c0 0 2.494-.983 6.236-2.459.941-.355 1.963-.741 3.055-1.124 1.093-.38 2.253-.771 3.482-1.085.607-.184 1.24-.313 1.879-.451.639-.139 1.284-.295 1.949-.367.666-.088 1.322-.197 2.007-.27.663-.059 1.333-.11 2.017-.138 2.707-.103 5.376-.065 7.878-.119 1.249-.033 2.455-.073 3.595-.149 1.139-.086 2.212-.204 3.191-.371.98-.169 1.866-.379 2.646-.59.769-.247 1.437-.479 1.955-.743.542-.222.919-.484 1.193-.638.271-.16.415-.246.415-.246s-.134.101-.384.29c-.257.18-.603.503-1.134.766-.505.313-1.16.605-1.925.924-.774.285-1.663.577-2.658.789-.992.222-2.078.398-3.23.546-1.153.137-2.372.249-3.633.303-2.518.14-5.211.115-7.86.237-.655.021-1.321.064-1.989.119-.642.062-1.299.164-1.941.243-.648.068-1.28.206-1.907.323-.628.119-1.25.229-1.851.395-1.21.288-2.374.602-3.475.924-1.1.323-2.134.654-3.09.962-1.906.627-3.521 1.105-4.644 1.439C171.256 405.126 170.61 405.305 170.61 405.305z"
                        class="svgShape color558c74-100 selectable"></path>
                    <path fill="#ffffff" d="M158.764,407.643c-0.237,0-0.448-0.17-0.492-0.411c-0.152-0.846-0.438-1.742-0.871-2.742
							c-0.11-0.254,0.006-0.548,0.26-0.658c0.253-0.112,0.548,0.008,0.657,0.26c0.465,1.071,0.771,2.041,0.938,2.963
							c0.049,0.272-0.132,0.532-0.403,0.581C158.823,407.64,158.793,407.643,158.764,407.643z M156.524,402.105
							c-0.179,0-0.351-0.096-0.441-0.264l-0.13-0.244c-0.429-0.802-0.873-1.63-1.253-2.451c-0.116-0.251-0.007-0.548,0.244-0.664
							c0.251-0.115,0.548-0.006,0.664,0.244c0.368,0.795,0.785,1.574,1.227,2.398l0.131,0.245c0.13,0.243,0.039,0.546-0.205,0.676
							C156.685,402.086,156.604,402.105,156.524,402.105z M154.171,396.604c-0.216,0-0.415-0.141-0.48-0.358
							c-0.311-1.056-0.603-1.986-1.014-2.688c-0.139-0.238-0.059-0.545,0.179-0.685c0.237-0.138,0.544-0.059,0.684,0.179
							c0.467,0.799,0.779,1.791,1.109,2.91c0.078,0.265-0.073,0.543-0.338,0.621C154.266,396.597,154.218,396.604,154.171,396.604z"
                        class="svgShape colorffffff-101 selectable"></path>
                    <path fill="#ffffff" d="M218.511,398.767c-0.043,0-0.087-0.006-0.13-0.018c-0.267-0.071-0.425-0.346-0.353-0.612
							c0.232-0.862,0.44-1.807,0.636-2.888c0.05-0.272,0.314-0.446,0.581-0.403c0.271,0.05,0.452,0.31,0.403,0.581
							c-0.201,1.109-0.416,2.08-0.655,2.97C218.934,398.621,218.731,398.767,218.511,398.767z M219.63,392.875
							c-0.024,0-0.048-0.002-0.072-0.005c-0.273-0.04-0.463-0.294-0.423-0.567l0.119-0.827c0.103-0.717,0.206-1.434,0.317-2.147
							c0.043-0.271,0.298-0.455,0.571-0.417c0.273,0.043,0.46,0.298,0.418,0.571c-0.11,0.709-0.213,1.422-0.315,2.135l-0.12,0.829
							C220.088,392.697,219.875,392.875,219.63,392.875z M220.596,386.955c-0.034,0-0.069-0.004-0.104-0.011
							c-0.271-0.058-0.443-0.323-0.386-0.593c0.231-1.089,0.485-2.055,0.779-2.951c0.085-0.263,0.364-0.406,0.63-0.32
							c0.263,0.086,0.406,0.368,0.32,0.631c-0.282,0.862-0.527,1.794-0.751,2.848C221.035,386.793,220.827,386.955,220.596,386.955z
							" class="svgShape colorffffff-102 selectable"></path>
                    <g>
                        <defs>
                            <path id="s" d="M76.867,384.332c0,0-5.919-29.448,1.49-67.252l34.191,8.984l1.674,16.379
							c0,0,31.406,7.408,49.447,13.699l22.513,4.942c0,0,6.099,2.033,8.422,5.905c0,0,9.642,10.239,8.005,11.99
							c-1.637,1.75-5.871-3.05-8.75-5.701c-4.119-3.797-9.808-4.935-9.808-4.935s16.005,19.127,12.348,21.813
							c-2.509,1.843-4.821-4.144-9.443-8.452c-4.623-4.308-9.391-7.938-9.391-7.938s15.896,17.002,12.794,19.775
							c-2.259,2.023-5.284-3.906-9.712-8.239c-4.626-4.526-9.8-6.219-9.8-6.219s15.788,15.612,14.037,17.676
							c-2.222,2.62-4.919-2.453-10.161-6.096c-5.242-3.644-10.808-8.475-10.808-8.475s-12.683,2.903-17.039-5.81
							C146.876,376.38,97.541,387.541,76.867,384.332z"
                                class="selectable"></path>
                        </defs>
                        <use fill="#ffd892" overflow="visible" xlink:href="#s"
                            class="svgShape colorffd892-106 selectable"></use>
                        <clipPath id="t">
                            <use overflow="visible" xlink:href="#s" fill="#000000"
                                class="svgShape color000000-108 selectable"></use>
                        </clipPath>
                        <path fill="#ffd892" d="
						M72.027,369.388c2.817,8.505,13.051,5.509,19.673,5.335c7.264-0.19,14.424-1.249,21.572-2.586
						c5.586-1.044,11.092-1.91,16.673-2.489c3.588-0.372,7.489-1.596,11.09-1.268c2.69,0.245,4.572,1.12,6.415,3.016
						c1.743,1.792,2.46,3.54,4.91,4.594c2.606,1.122,5.639,0.67,8.333,1.481c2.552,0.77,3.972,2.429,5.983,3.991
						c3.773,2.933,12.788,8.688,11.683,14.601c-0.932,4.982-10.065,3.09-13.323,1.258c-3.813-2.145-6.448-5.64-10.564-7.41
						c-3.589-1.543-7.813-1.908-11.698-1.548c-11.958,1.11-23.872,4.314-35.76,6.05c-5.582,0.815-11.42-0.122-17.002-0.609
						c-3.781-0.331-8.026-1.388-10.594-4.498c-2.225-2.695-2.971-7.39-4.482-10.656c-1.233-2.663-1.729-5.158-2.299-7.927
						c-0.092-0.111-0.184-0.223-0.276-0.334" clip-path="url(#t)" opacity=".5"
                            class="svgShape colorffd892-109 selectable"></path>
                    </g>
                    <g>
                        <defs>
                            <path id="u" d="M260.207,311.803c0,0,13.628,31.428,17.596,35.961c0,0-26.074,8.882-37.412,13.605
								c0,0-3.779,23.053,27.209,20.027c0,0,39.868-7.747,46.671-13.225c0,0-2.41-37.742-25.856-75.199L260.207,311.803z"
                                class="selectable"></path>
                        </defs>
                        <use fill="#ffd892" overflow="visible" xlink:href="#u"
                            class="svgShape colorffd892-113 selectable"></use>
                        <clipPath id="v">
                            <use overflow="visible" xlink:href="#u" fill="#000000"
                                class="svgShape color000000-115 selectable"></use>
                        </clipPath>
                        <path fill="#ffd892" d="
							M265.527,383.056c2.814-0.585,5.345-2.742,7.796-4.13c3.084-1.745,6.136-3.569,9.196-5.361
							c6.133-3.593,12.965-5.596,19.511-8.3c3.272-1.352,6.822-3.085,10.293-3.839c2.151-0.467,3.101,0.406,3.828,2.58
							c0.848,2.533-1.166,6.833-2.824,8.717c-1.949,2.213-4.56,3.085-7.133,4.375c-3.765,1.889-7.419,3.393-11.543,4.342
							c-6.425,1.476-13.153,2.711-19.749,2.121c-3.01-0.27-5.952-1.112-8.884-1.542c-0.065-0.01-0.767-0.227-0.491-0.13"
                            clip-path="url(#v)" opacity=".5"
                            class="svgShape colorffd892-116 selectable"></path>
                        <defs>
                            <path id="w" d="M231.157,358.866c0,0,15.663-4.288,24.081,6.001c0,0,14.885,19.482,4.209,21.042
								c0,0-5.715,1.584-13.467-2.935c0,0-4,1.563-7.854,4.534c-3.853,2.971-4.612,9.103-7.559,7.348
								c-3.238-1.928,9.251-18.906,9.251-18.906s-3.912,2.581-8.691,6.31c-4.78,3.727-7.769,11.618-10.428,8.608
								c-2.66-3.011,12.881-20,12.881-20s-4.462,2.531-9.592,6.491c-5.129,3.962-8.459,10.96-10.926,9.354
								c-4.262-2.773,15.616-20.001,15.616-20.001s-4.284,1.795-8.913,5.086c-4.63,3.288-6.498,9.959-9.605,8.074
								c-3.108-1.883,2.701-8.179,7.95-13.431C223.36,361.19,231.157,358.866,231.157,358.866z"
                                class="selectable"></path>
                        </defs>
                        <use fill="#ffd892" overflow="visible" xlink:href="#w"
                            class="svgShape colorffd892-119 selectable"></use>
                        <clipPath id="x">
                            <use overflow="visible" xlink:href="#w" fill="#000000"
                                class="svgShape color000000-121 selectable"></use>
                        </clipPath>
                        <path fill="#ffd892" d="
							M232.526,397.056c-0.572-2.085,0.981-5.064,1.837-7.009c1.114-2.532,2.181-4.834,4.371-6.662
							c1.444-1.205,3.922-3.233,5.754-3.702c2.188-0.56,2.815,1.154,4.575,1.923c3.889,1.697,9.13-1.068,12.841,1.408
							c1.496,0.999,1.754,3.582,0.22,4.668c-1.462,1.035-4.895,1.568-6.643,1.719c-2.757,0.238-5.47-0.583-8.22-0.682
							c-4.334-0.154-6.614,3.096-9.526,5.961c-1.185,1.166-4.455,3.688-5.208,0.709"
                            clip-path="url(#x)" opacity=".5"
                            class="svgShape colorffd892-122 selectable"></path>
                    </g>
                </g>
                <g>
                    <rect width="7.668" height="14.569" x="209.423" y="251.982" fill="#cf8fd8"
                        class="svgShape colorcf8fd8-124 selectable"></rect>
                    <defs>
                        <path id="y" d="M287.744,248.837h17.256c0.643,0,1.162,0.523,1.162,1.165v13.909c0,0.642-0.52,1.162-1.162,1.162
							h-17.256c-0.643,0-1.162-0.521-1.162-1.162v-13.909C286.582,249.359,287.101,248.837,287.744,248.837z"
                            class="selectable"></path>
                    </defs>
                    <use fill="#ffffff" overflow="visible" xlink:href="#y"
                        class="svgShape colorffffff-127 selectable"></use>
                    <clipPath id="z">
                        <use overflow="visible" xlink:href="#y" fill="#000000"
                            class="svgShape color000000-129 selectable"></use>
                    </clipPath>
                    <g clip-path="url(#z)" opacity=".4">
                        <rect width="25.455" height=".25" x="284.988" y="252.93" fill="#5da585"
                            class="svgShape color5da585-131 selectable"></rect>
                    </g>
                    <g clip-path="url(#z)" opacity=".4">
                        <rect width="25.455" height=".25" x="284.988" y="255.097" fill="#5da585"
                            class="svgShape color5da585-133 selectable"></rect>
                    </g>
                    <g clip-path="url(#z)" opacity=".4">
                        <rect width="27.834" height=".25" x="284.443" y="259.097" fill="#5da585"
                            class="svgShape color5da585-135 selectable"></rect>
                    </g>
                    <g clip-path="url(#z)" opacity=".4">
                        <rect width="30.333" height=".25" x="282.61" y="262.597" fill="#5da585"
                            class="svgShape color5da585-137 selectable"></rect>
                    </g>
                    <path fill="#844e8c" d="M286.15,245.446h20.227c0.642,0,1.162,0.52,1.162,1.162v1.067c0,0.642-0.521,1.162-1.162,1.162
					H286.15c-0.643,0-1.162-0.52-1.162-1.162v-1.067C284.988,245.966,285.507,245.446,286.15,245.446z"
                        class="svgShape color844e8c-138 selectable"></path>
                    <path fill="#cf8fd8" d="M294.887,241.47h2.583c0.642,0,1.162,0.521,1.162,1.163v1.651c0,0.642-0.52,1.162-1.162,1.162
					h-2.583c-0.642,0-1.162-0.52-1.162-1.162v-1.651C293.725,241.991,294.246,241.47,294.887,241.47z"
                        class="svgShape colorcf8fd8-139 selectable"></path>
                    <path fill="#844e8c" d="M335.839,247.585h6.636c0.643,0,1.162,0.52,1.162,1.162v14.997c0,0.643-0.52,1.162-1.162,1.162
					h-6.636c-0.643,0-1.162-0.52-1.162-1.162v-14.997C334.677,248.105,335.197,247.585,335.839,247.585z"
                        class="svgShape color844e8c-140 selectable"></path>
                    <rect width="6.016" height="6.78" x="369.692" y="258.695" fill="#844e8c"
                        class="svgShape color844e8c-141 selectable"></rect>
                    <rect width=".79" height="20.314" x="216.403" y="370.064" fill="#844e8c"
                        class="svgShape color844e8c-142 selectable"></rect>
                    <rect width="2.425" height="20.315" x="215.585" y="355.055" fill="#cf8fd8"
                        class="svgShape colorcf8fd8-143 selectable"></rect>
                    <defs>
                        <path id="A" d="M197,317.005c0,0,0-48.891,3.531-51.335c0,0,191.539-3.21,210.84,2.684
							c0,0,2.842,104.584-0.884,125.942c0,0-28.43,16.41-69.763,4.816c0,0,4.006-77.947-48.064-77.324l-44.099-0.544
							c0,0-12.498,37.561-39.171,39.68c0,0-11.795-0.43-11.415-29.917c0,0-5.342,2.158-5.577-5.43
							C192.398,325.578,190.442,316.994,197,317.005z"
                            class="selectable"></path>
                    </defs>
                    <use fill="#cf8fd8" overflow="visible" xlink:href="#A"
                        class="svgShape colorcf8fd8-146 selectable"></use>
                    <clipPath id="B">
                        <use overflow="visible" xlink:href="#A" fill="#000000"
                            class="svgShape color000000-148 selectable"></use>
                    </clipPath>
                    <polygon fill="#f9d9ff"
                        points="207.449 259.256 234.391 259.256 234.391 360.023 207.449 365.055"
                        clip-path="url(#B)" class="svgShape colorf9d9ff-149 selectable"></polygon>
                    <path fill="#422746" d="M248.005,282.336
						c0-3.317,2.69-6.006,6.005-6.006c3.315,0,6.007,2.689,6.007,6.006c0,3.315-2.691,6.006-6.007,6.006
						C250.695,288.341,248.005,285.651,248.005,282.336z" clip-path="url(#B)"
                        class="svgShape color422746-150 selectable"></path>
                    <path fill="#f9d9ff" d="M297.018,299.425
						c0-6.128,4.969-11.096,11.094-11.096c6.128,0,11.094,4.968,11.094,11.096c0,6.125-4.966,11.094-11.094,11.094
						C301.987,310.519,297.018,305.55,297.018,299.425z" clip-path="url(#B)"
                        class="svgShape colorf9d9ff-151 selectable"></path>
                    <path fill="#422746"
                        d="M305.468 298.978c0-2.541 2.058-4.599 4.598-4.599 2.541 0 4.6 2.058 4.6 4.599 0 2.54-2.059 4.598-4.6 4.598C307.526 303.576 305.468 301.518 305.468 298.978zM359.58 308.6c0-2.815 2.28-5.095 5.093-5.095 2.815 0 5.096 2.279 5.096 5.095 0 2.813-2.28 5.093-5.096 5.093C361.86 313.693 359.58 311.413 359.58 308.6zM395.361 317.438c0-2.224 1.804-4.028 4.031-4.028 2.224 0 4.028 1.805 4.028 4.028 0 2.227-1.805 4.031-4.028 4.031C397.165 321.469 395.361 319.665 395.361 317.438z"
                        clip-path="url(#B)" class="svgShape color422746-152 selectable"></path>
                    <path fill="#f9d9ff" d="M335.52,370.216
						c0,0,36.633-0.952,35.859,19.372l-0.237,18.145l-34.111-5.203L335.52,370.216z"
                        clip-path="url(#B)" class="svgShape colorf9d9ff-153 selectable"></path>
                    <path fill="#cf8fd8" d="
						M196.36,346.722c7.247,8.106,19.73,0.044,25.915-5.019c4.104-3.359,8.703-7.475,12.101-11.573
						c2.502-3.019,3.662-6.847,6.318-9.759c9.73-10.67,31.597-8.268,44.266-7.576c13.176,0.719,28.394,2.802,39.15,11.242
						c9.941,7.803,20.098,20.341,22.257,33.006c1.183,6.939,0.408,14.017,0.734,21.012c0.254,5.446,2.203,9.656-0.157,14.917
						c-2.136,4.761-7.276,10.597-12.551,11.84c-9.292,2.191-13.792-2.654-19.441-8.757c-7.855-8.484-10.3-20.5-20.258-26.999
						c-9.852-6.429-18.996-3.998-29.304-0.585c-13.761,4.558-27.873,6.397-42.369,6.25c-7.636-0.077-16.776-1.823-19.402-9.433
						c-1.897-5.496-5.648-12.706-5.926-18.233" clip-path="url(#B)" opacity=".3"
                        class="svgShape colorcf8fd8-154 selectable"></path>
                    <path fill="#f9d9ff" d="
						M243.36,264.388c5.795,5.791,18.829,2.738,26.334,3.668c10.943,1.355,21.973,0.444,32.915,1.74
						c18.979,2.248,38.116,1.845,57.001,5.51c13.73,2.663,28.008,5.95,38.417,15.832c2.709,2.571,4.901,5.136,6.926,8.268
						c1.587,2.455,3.222,5.321,6.741,4.672c7.566-1.396,9.244-15.224,9.591-21.112c0.364-6.195,0.647-13.3-5.642-16.574
						c-8.353-4.351-21.827-3.052-30.875-2.687c-12.293,0.497-24.448,0.886-36.724,0.008c-11.443-0.817-22.85-2.295-34.276-3.416
						c-15.516-1.52-31.393-2.196-47.008-1.5c-3.696,0.165-22.242,0.537-22.4,6.259"
                        clip-path="url(#B)" opacity=".4"
                        class="svgShape colorf9d9ff-155 selectable"></path>
                </g>
            </g>
        </svg>
    </g>
</svg>