<?xml version="1.0" encoding="UTF-8" standalone="no"?>
<svg
   version="1.0"
   width="390.000000pt"
   height="494.000000pt"
   viewBox="0 0 390.000000 494.000000"
   preserveAspectRatio="xMidYMid meet"
   id="svg1"
   sodipodi:docname="svg_logo.svg"
   inkscape:export-filename="svg_logo.png"
   inkscape:export-xdpi="96"
   inkscape:export-ydpi="96"
   inkscape:version="1.4.2 (f4327f4, 2025-05-13)"
   xmlns:inkscape="http://www.inkscape.org/namespaces/inkscape"
   xmlns:sodipodi="http://sodipodi.sourceforge.net/DTD/sodipodi-0.dtd"
   xmlns="http://www.w3.org/2000/svg"
   xmlns:svg="http://www.w3.org/2000/svg">
  <defs
     id="defs1" />
  <sodipodi:namedview
     id="namedview1"
     pagecolor="#ffffff"
     bordercolor="#000000"
     borderopacity="0.25"
     inkscape:showpageshadow="2"
     inkscape:pageopacity="0.0"
     inkscape:pagecheckerboard="0"
     inkscape:deskcolor="#d1d1d1"
     inkscape:document-units="pt"
     inkscape:zoom="1.173583"
     inkscape:cx="260.31393"
     inkscape:cy="329.33333"
     inkscape:window-width="1920"
     inkscape:window-height="991"
     inkscape:window-x="-9"
     inkscape:window-y="-9"
     inkscape:window-maximized="1"
     inkscape:current-layer="svg1" />
  <g
     transform="translate(0.000000,494.000000) scale(0.100000,-0.100000)"
     fill="#000000"
     stroke="fill"
     id="g1">
    <path
       d="M2332 4790 c-41 -29 -43 -34 -38 -68 20 -136 23 -119 -52 -284 -38 -84 -95 -211 -127 -283 -104 -237 -168 -375 -274 -599 -34 -70 -61 -130 -61 -132 0 -2 -28 -61 -61 -131 -60 -124 -96 -200 -174 -368 -42 -91 -174 -370 -246 -522 -27 -57 -49 -106 -49 -109 0 -11 -132 -269 -143 -280 -9 -8 -61 -6 -197 7 -239 24 -664 37 -674 21 -5 -8 5 -12 31 -12 187 -3 781 -66 802 -86 10 -9 -55 -157 -216 -494 -30 -63 -97 -207 -148 -320 -51 -113 -112 -245 -135 -295 -40 -83 -64 -138 -187 -425 -50 -118 -103 -256 -103 -271 0 -35 84 97 205 321 43 80 90 165 103 190 14 25 45 83 70 130 24 47 52 99 62 115 10 17 48 89 85 160 37 72 80 153 95 180 78 142 186 349 264 503 61 121 92 172 104 172 24 0 131 -21 402 -79 532 -114 674 -153 900 -250 129 -55 284 -135 292 -151 4 -8 28 -85 53 -170 77 -265 191 -528 325 -750 66 -110 74 -121 171 -237 129 -154 286 -177 347 -51 56 114 73 316 38 448 -23 89 -104 251 -166 333 -138 182 -400 390 -624 496 -48 23 -69 39 -77 59 -50 129 -255 1182 -359 1837 -57 365 -160 1096 -160 1142 0 19 45 44 65 37 16 -6 17 -17 11 -100 -7 -96 1 -221 14 -207 4 4 28 60 55 123 40 98 46 121 41 159 -12 87 -69 136 -148 127 -27 -3 -50 -1 -54 5 -3 5 -9 39 -12 75 l-7 66 -43 -32z m18 -500 c77 -649 258 -1707 412 -2417 34 -156 59 -286 55 -289 -3 -3 -35 6 -71 20 -243 98 -900 271 -1312 347 -65 12 -123 25 -128 30 -4 4 -2 20 6 36 26 52 190 367 238 458 26 50 105 203 175 340 70 138 145 282 165 320 21 39 100 189 175 335 292 562 276 529 269 569 -8 46 -13 50 -27 26 -6 -11 -35 -46 -65 -77 -140 -148 -143 1 -6 288 57 120 82 155 94 132 4 -7 13 -60 20 -118z m714 -2941 c173 -117 350 -284 448 -424 67 -93 133 -231 159 -330 29 -110 32 -299 5 -340 -16 -24 -23 -27 -56 -22 -81 11 -173 106 -293 303 -115 189 -228 437 -307 672 -40 121 -48 157 -39 168 15 19 13 20 83 -27z"
       id="path1" />
  </g>
  <g
     transform="matrix(0.1,0,0,-0.10027303,-0.29606111,495.01302)"
     fill="#000000"
     stroke="fill"
     id="g2">
    <path
       id="path1-8"
       d="M 2374.9951,4822.0068 2332.002,4790 c -41,-29 -42.9981,-33.998 -37.9981,-67.998 6.3712,-43.324 11.0191,-71.1174 11.9678,-94.2188 1.6713,-3.1574 2.9293,-7.1056 3.5596,-11.8652 1.1795,-8.9061 1.7379,-17.8819 2.1679,-26.8506 0.2442,-10.2755 1.4735,-20.4923 2.2705,-30.7324 1.2304,-14.2214 2.6109,-28.42 3.6768,-42.6563 0.6025,-9.4978 1.0333,-18.9992 1.9043,-28.4766 0.7548,-9.2575 1.6828,-18.487 2.2558,-27.7587 0.027,-0.5777 0.048,-1.1508 0.073,-1.7286 0.1205,-0.764 0.2338,-1.5351 0.3515,-2.2998 0.178,-1.0625 0.2823,-2.1468 0.3223,-3.2226 0,-0.4987 0.01,-0.9842 0.059,-1.4795 0.057,-0.5035 0.077,-1.0029 0.088,-1.5088 h 0.015 v -0.015 c 0.049,-0.098 0.034,-0.2012 0.044,-0.3077 0.04,-0.3364 0.068,-0.6725 0.088,-1.0107 0,-0.3305 0.043,-0.6681 0.073,-0.9961 0.019,-0.1951 0.011,-0.2202 0.015,-0.249 v -0.015 l 0.015,-0.015 v -0.015 l 0.015,-0.015 v -0.029 c 0.196,-0.5494 0.2576,-1.1808 0.3076,-1.7725 0.04,-0.5955 0.038,-1.1923 0.088,-1.7871 0.072,-0.6884 0.062,-1.3776 0.1318,-2.0654 0.156,-1.5771 0.2237,-3.1625 0.2637,-4.7461 0.012,-0.232 0.022,-0.4713 0.029,-0.7031 0,-0.5501 0.066,-1.0978 0.1465,-1.6407 0.04,-0.563 0.1619,-1.0943 0.2929,-1.6406 0.185,-0.7524 0.2505,-1.5255 0.3955,-2.2851 0.133,-0.6729 0.267,-1.3536 0.337,-2.0362 0.028,-0.5666 0.111,-1.12 0.1611,-1.6845 v -0.015 c 0.055,-0.1401 0.088,-0.2785 0.1172,-0.4248 0.072,-0.3249 0.1258,-0.6521 0.1758,-0.9814 0.056,-0.5008 0.082,-1.0185 0.205,-1.5088 0.118,-0.5464 0.2778,-1.0718 0.4688,-1.5967 0.375,-0.9625 0.6222,-1.9716 0.8642,-2.9736 0.212,-0.9313 0.3243,-1.8747 0.5713,-2.7979 0.066,-0.2206 0.1145,-0.4497 0.1612,-0.6738 0.01,-0.032 0.027,-0.095 0.044,-0.1612 v -0.015 c 0.1627,-0.3587 0.2521,-0.7537 0.3076,-1.1426 0.037,-0.2219 0.097,-0.4351 0.1465,-0.6592 v -0.015 c 0.1641,-0.2957 0.2832,-0.6053 0.3662,-0.9668 0.051,-0.2976 0.055,-0.6063 0.059,-0.9082 10e-5,-0.01 -1e-4,-0.02 0,-0.029 v -0.015 -0.015 l 0.015,-0.015 v -0.015 -0.015 -0.015 l 0.015,-0.015 0.015,-0.015 v -0.015 c 0.111,-0.2956 0.1643,-0.65 0.2343,-0.9229 -0.01,0.03 0.019,-0.066 0.044,-0.1611 v -0.015 -0.015 -0.015 l 0.015,-0.015 v -0.015 h 0.015 l 0.015,-0.029 v -0.015 l 0.015,-0.029 v -0.029 c 0.1261,-0.2215 0.1849,-0.2998 0.2783,-0.5566 0.021,-0.06 0.044,-0.125 0.059,-0.1758 0.1075,-0.1808 0.2018,-0.3817 0.3076,-0.5713 0.1209,-0.2167 0.2471,-0.4308 0.3662,-0.6592 0.014,-0.023 0.06,-0.3709 0.073,-0.3955 0.3206,-0.7179 0.4021,-1.3323 0.3076,-1.8457 v -0.029 c 4.1095,-8.5859 12.7635,-58.8385 19.6289,-115.7227 77,-649 258.0019,-1707.0068 412.0019,-2417.0068 34,-156 58.9903,-285.999 54.9903,-288.999 -3,-3 -35.001,5.9951 -71.001,19.9951 -243,98 -900.002,271.0068 -1312.002,347.0068 -64.5744,11.9215 -122.2408,24.8266 -127.8955,29.8975 0.2089,0.4263 0.3164,0.6682 0.3369,0.7471 v 0.015 h -0.015 l -0.015,-0.015 c -0.063,-0.068 -0.2202,-0.316 -0.4249,-0.6446 -0.7028,0.6936 -1.3955,0.6431 -2.0361,0.1612 -16.429,2.6234 -143.406,24.4972 -185.6689,31.6113 -1.043,0 -2.0909,0.012 -3.1348,0.015 -2.0045,0.01 -1.0079,0 -3.0176,0 -2.2245,0.01 -4.3392,0.1206 -6.3427,0.337 -11.8668,-6.9603 -64.9601,-4.6237 -195.77642,7.8808 -239,24 -664.0039,36.9912 -674.0039,20.9912 -5,-8 4.99609,-11.997 30.99609,-11.997 162.08274,-2.6003 629.93497,-50.2843 765.41013,-75.9668 0.2157,0 0.4344,3e-4 0.6592,-0.015 2.3902,-0.1037 4.7602,-0.4807 7.0899,-1.0107 1.3252,-0.3387 2.6144,-0.8031 3.8818,-1.3037 11.0713,-2.3504 18.8288,-4.4617 22.7051,-6.2989 0.9953,-0.1839 1.9776,-0.455 2.9443,-0.747 0.627,-0.1212 1.2233,-0.3575 1.8164,-0.586 101.0566,-15.6028 374.1771,-65.0191 598.4912,-113.0273 532,-114 674,-153.0049 900,-250.0049 129,-55 284.002,-134.9961 292.002,-150.9961 4,-8 27.998,-84.9951 52.998,-169.9951 77,-265.00064 191.0049,-528.00002 325.0049,-750.00002 66,-110 74.0059,-121.01172 171.0059,-237.01172 129,-154 285.9921,-176.991114 346.9921,-50.99121 56,114 72.9981,315.99317 37.9981,447.99317 -23,89 -103.9961,251.00448 -165.9961,333.00288 -138,182 -399.9941,389.9961 -623.9941,495.9961 -48,23 -69.0069,39.0039 -77.0069,59.0039 -50,129 -255.0039,1182.002 -359.0039,1837.002 -57,365 -159.9902,1096.0068 -159.9902,1142.0068 0,0.2906 0.01,0.5858 0.029,0.8789 -0.2137,1.7443 -0.3702,3.4878 -0.4834,5.2442 -0.114,1.7886 0.1525,1.1857 -0.1465,1.831 -0.431,2.1978 -0.6943,4.4335 -0.8643,6.6651 0,-0.075 0.02,-0.26 0.015,-0.3076 v -0.015 h -0.015 v 0.015 c -0.529,1.6675 -0.641,4.3767 -0.791,6.1377 -0.135,2.0774 -0.52,4.1417 -0.747,6.2255 -0.029,0.3641 -0.067,0.7211 -0.1026,1.084 v -0.1465 h -0.015 c -0.211,0.6921 -0.2587,1.423 -0.3662,2.1387 -1.1445,3.1007 -1.7039,6.3645 -2.2706,9.6094 -0.5511,3.2007 -0.7249,6.4497 -1.1279,9.668 -0.469,3.5335 -0.6424,7.0893 -0.7324,10.6494 0.085,2.6416 -0.2717,5.2561 -0.5127,7.8808 -0.274,3.0405 -0.3555,6.0898 -0.3955,9.1407 0.074,2.7893 -0.2861,5.5566 -0.4981,8.3349 -0.102,1.0289 -0.1022,2.2135 -0.3662,3.2373 v 0.015 h -0.015 c 0.014,-0.097 0.089,-0.4788 0.059,-0.6299 v -0.015 h -0.015 -0.015 v 0.015 c -0.028,0.035 -0.069,0.1102 -0.088,0.1465 -0.168,0.3795 -0.3158,0.7714 -0.4688,1.1572 -1.3949,3.4292 -2.0478,7.0781 -3.0468,10.6201 -0.8604,2.7818 -1.5302,5.6046 -1.9922,8.4815 -0.4661,2.5108 -0.7548,5.0354 -1.2158,7.5439 -0.359,1.9687 -0.6367,3.9531 -0.8057,5.9473 -0.134,1.5479 0.034,0.9246 -0.1465,1.582 -0.456,2.915 -0.6901,5.8588 -0.8349,8.8037 -0.337,1.2724 -0.4309,2.8311 -0.6299,4.2041 -0.02,0.139 0.02,-0.2847 0.029,-0.4248 -0.6014,2.3847 -0.9047,4.8187 -1.0987,7.2656 -0.3297,4.1527 -0.059,7.8062 0.6739,10.9424 -3.0499,13.6604 -6.8224,38.8314 -9.0088,65.0684 z m 199.1602,-326.7627 c 0.3207,-0.5901 0.6867,-1.0468 1.084,-1.2158 -0.3148,0.4487 -0.6856,0.8436 -1.084,1.2158 z m 422.6806,-3107.0068 c 9.4264,-0.3421 25.6006,-11.3369 67.1631,-39.2432 173,-117 350.0078,-283.999 448.0078,-423.99898 67,-93 132.9942,-231 158.9942,-330 29,-110 31.9951,-298.99024 4.9951,-339.99024 -16,-24 -23.001,-27.00195 -56.001,-22.00195 -81,11 -172.998,106.00293 -292.998,303.00293 -115,189 -228.002,436.998 -307.002,671.99704 -40,121 -47.9941,157.003 -38.9941,168.003 6.0937,7.7187 9.3853,12.4655 15.8349,12.2314 z"
       inkscape:export-filename="D:\depi project\thread.svg"
       inkscape:export-xdpi="96"
       inkscape:export-ydpi="96"
       style="fill:#c8ab37" />
  </g>
</svg>
