<?xml version="1.0" standalone="no"?>

<svg version="1.0" xmlns="http://www.w3.org/2000/svg" width="390.000000pt" height="494.000000pt"
    viewBox="0 0 390.000000 494.000000" preserveAspectRatio="xMidYMid meet">

    <g transform="translate(0.000000,494.000000) scale(0.100000,-0.100000)" fill="#000000"
        stroke="fill">
        <path d="M2332 4790 c-41 -29 -43 -34 -38 -68 20 -136 23 -119 -52 -284 -38
-84 -95 -211 -127 -283 -104 -237 -168 -375 -274 -599 -34 -70 -61 -130 -61
-132 0 -2 -28 -61 -61 -131 -60 -124 -96 -200 -174 -368 -42 -91 -174 -370
-246 -522 -27 -57 -49 -106 -49 -109 0 -11 -132 -269 -143 -280 -9 -8 -61 -6
-197 7 -239 24 -664 37 -674 21 -5 -8 5 -12 31 -12 187 -3 781 -66 802 -86 10
-9 -55 -157 -216 -494 -30 -63 -97 -207 -148 -320 -51 -113 -112 -245 -135
-295 -40 -83 -64 -138 -187 -425 -50 -118 -103 -256 -103 -271 0 -35 84 97
205 321 43 80 90 165 103 190 14 25 45 83 70 130 24 47 52 99 62 115 10 17 48
89 85 160 37 72 80 153 95 180 78 142 186 349 264 503 61 121 92 172 104 172
24 0 131 -21 402 -79 532 -114 674 -153 900 -250 129 -55 284 -135 292 -151 4
-8 28 -85 53 -170 77 -265 191 -528 325 -750 66 -110 74 -121 171 -237 129
-154 286 -177 347 -51 56 114 73 316 38 448 -23 89 -104 251 -166 333 -138
182 -400 390 -624 496 -48 23 -69 39 -77 59 -50 129 -255 1182 -359 1837 -57
365 -160 1096 -160 1142 0 19 45 44 65 37 16 -6 17 -17 11 -100 -7 -96 1 -221
14 -207 4 4 28 60 55 123 40 98 46 121 41 159 -12 87 -69 136 -148 127 -27 -3
-50 -1 -54 5 -3 5 -9 39 -12 75 l-7 66 -43 -32z m18 -500 c77 -649 258 -1707
412 -2417 34 -156 59 -286 55 -289 -3 -3 -35 6 -71 20 -243 98 -900 271 -1312
347 -65 12 -123 25 -128 30 -4 4 -2 20 6 36 26 52 190 367 238 458 26 50 105
203 175 340 70 138 145 282 165 320 21 39 100 189 175 335 292 562 276 529
269 569 -8 46 -13 50 -27 26 -6 -11 -35 -46 -65 -77 -140 -148 -143 1 -6 288
57 120 82 155 94 132 4 -7 13 -60 20 -118z m714 -2941 c173 -117 350 -284 448
-424 67 -93 133 -231 159 -330 29 -110 32 -299 5 -340 -16 -24 -23 -27 -56
-22 -81 11 -173 106 -293 303 -115 189 -228 437 -307 672 -40 121 -48 157 -39
168 15 19 13 20 83 -27z" />
    </g>
</svg>
